<svg xmlns="http://www.w3.org/2000/svg" fill="none" viewBox="0 0 160 175" height="175" width="160">
<g filter="url(#filter0_d_6711_20605)">
<ellipse style="mix-blend-mode:multiply" fill="url(#paint0_linear_6711_20605)" transform="matrix(0.864408 0.502791 -0.497215 0.867628 62.0469 0)" ry="49.3222" rx="49.1392" cy="49.3222" cx="49.1392"></ellipse>
<ellipse fill="url(#paint1_linear_6711_20605)" transform="matrix(0.864408 0.502791 -0.497215 0.867628 62.0469 0)" ry="49.3222" rx="49.1392" cy="49.3222" cx="49.1392"></ellipse>
<ellipse fill="white" ry="35.7885" rx="35.5234" cy="68.0273" cx="79.8906"></ellipse>
<path fill="#0B305B" d="M68 77C68 77.5625 68.4375 78 69 78H94C95.0625 78 96 78.9375 96 80C96 81.125 95.0625 82 94 82H69C66.1875 82 64 79.8125 64 77V56C64 54.9375 64.875 54 66 54C67.0625 54 68 54.9375 68 56V77ZM85.375 69.4375C84.625 70.25 83.3125 70.25 82.5625 69.4375L79 65.875L73.375 71.4375C72.625 72.25 71.3125 72.25 70.5625 71.4375C69.75 70.6875 69.75 69.375 70.5625 68.625L77.5625 61.625C78.3125 60.8125 79.625 60.8125 80.375 61.625L84 65.1875L90.5625 58.625C91.3125 57.8125 92.625 57.8125 93.375 58.625C94.1875 59.375 94.1875 60.6875 93.375 61.4375L85.375 69.4375Z"></path>
<path fill="url(#paint2_linear_6711_20605)" d="M68 77C68 77.5625 68.4375 78 69 78H94C95.0625 78 96 78.9375 96 80C96 81.125 95.0625 82 94 82H69C66.1875 82 64 79.8125 64 77V56C64 54.9375 64.875 54 66 54C67.0625 54 68 54.9375 68 56V77ZM85.375 69.4375C84.625 70.25 83.3125 70.25 82.5625 69.4375L79 65.875L73.375 71.4375C72.625 72.25 71.3125 72.25 70.5625 71.4375C69.75 70.6875 69.75 69.375 70.5625 68.625L77.5625 61.625C78.3125 60.8125 79.625 60.8125 80.375 61.625L84 65.1875L90.5625 58.625C91.3125 57.8125 92.625 57.8125 93.375 58.625C94.1875 59.375 94.1875 60.6875 93.375 61.4375L85.375 69.4375Z"></path>
</g>
<defs>
<filter color-interpolation-filters="sRGB" filterUnits="userSpaceOnUse" height="195" width="194" y="-2" x="-17" id="filter0_d_6711_20605">
<feFlood result="BackgroundImageFix" flood-opacity="0"></feFlood>
<feColorMatrix result="hardAlpha" values="0 0 0 0 0 0 0 0 0 0 0 0 0 0 0 0 0 0 127 0" type="matrix" in="SourceAlpha"></feColorMatrix>
<feOffset dy="28"></feOffset>
<feGaussianBlur stdDeviation="15"></feGaussianBlur>
<feComposite operator="out" in2="hardAlpha"></feComposite>
<feColorMatrix values="0 0 0 0 0.0862745 0 0 0 0 0.262745 0 0 0 0 0.466667 0 0 0 0.22 0" type="matrix"></feColorMatrix>
<feBlend result="effect1_dropShadow_6711_20605" in2="BackgroundImageFix" mode="multiply"></feBlend>
<feBlend result="shape" in2="effect1_dropShadow_6711_20605" in="SourceGraphic" mode="normal"></feBlend>
</filter>
<linearGradient gradientUnits="userSpaceOnUse" y2="163.683" x2="49.1392" y1="0" x1="49.1392" id="paint0_linear_6711_20605">
<stop stop-color="#F0FAFF"></stop>
<stop stop-opacity="0" stop-color="#F0FAFF" offset="1"></stop>
</linearGradient>
<linearGradient gradientUnits="userSpaceOnUse" y2="0.416703" x2="85.2135" y1="88.6538" x1="71.7625" id="paint1_linear_6711_20605">
<stop stop-opacity="0" stop-color="#1F80F0"></stop>
<stop stop-color="#014AB8" offset="1"></stop>
</linearGradient>
<linearGradient gradientUnits="userSpaceOnUse" y2="69.8553" x2="105.372" y1="100" x1="80" id="paint2_linear_6711_20605">
<stop stop-color="#00C874"></stop>
<stop stop-color="#1F80F0" offset="0.520833"></stop>
<stop stop-color="#014AB8" offset="1"></stop>
</linearGradient>
</defs>
</svg>
