<svg xmlns="http://www.w3.org/2000/svg" fill="none" viewBox="0 0 50 50" height="50" width="50">
<rect fill="#D7F8F9" rx="25" height="50" width="50"></rect>
<path fill="#0B305B" d="M22.5 18.625C22.5 19.9141 21.7188 21.0078 20.625 21.5156V24.9531C21.3281 24.5234 22.1875 24.25 23.125 24.25H26.875C28.2422 24.25 29.375 23.1562 29.375 21.75V21.5156C28.2422 21.0078 27.5 19.9141 27.5 18.625C27.5 16.9062 28.8672 15.5 30.625 15.5C32.3438 15.5 33.75 16.9062 33.75 18.625C33.75 19.9141 32.9688 21.0078 31.875 21.5156V21.75C31.875 24.5234 29.6094 26.75 26.875 26.75H23.125C21.7188 26.75 20.625 27.8828 20.625 29.25V29.5234C21.7188 29.9922 22.5 31.125 22.5 32.375C22.5 34.1328 21.0938 35.5 19.375 35.5C17.6172 35.5 16.25 34.1328 16.25 32.375C16.25 31.125 16.9922 29.9922 18.125 29.5234V21.5156C16.9922 21.0078 16.25 19.9141 16.25 18.625C16.25 16.9062 17.6172 15.5 19.375 15.5C21.0938 15.5 22.5 16.9062 22.5 18.625ZM19.375 19.5625C19.8828 19.5625 20.3125 19.1719 20.3125 18.625C20.3125 18.1172 19.8828 17.6875 19.375 17.6875C18.8281 17.6875 18.4375 18.1172 18.4375 18.625C18.4375 19.1719 18.8281 19.5625 19.375 19.5625ZM30.625 17.6875C30.0781 17.6875 29.6875 18.1172 29.6875 18.625C29.6875 19.1719 30.0781 19.5625 30.625 19.5625C31.1328 19.5625 31.5625 19.1719 31.5625 18.625C31.5625 18.1172 31.1328 17.6875 30.625 17.6875ZM19.375 33.3125C19.8828 33.3125 20.3125 32.9219 20.3125 32.375C20.3125 31.8672 19.8828 31.4375 19.375 31.4375C18.8281 31.4375 18.4375 31.8672 18.4375 32.375C18.4375 32.9219 18.8281 33.3125 19.375 33.3125Z"></path>
</svg>
