<svg xmlns="http://www.w3.org/2000/svg" fill="none" viewBox="0 0 235 43" height="43" width="235">
<rect fill="#F8FCFF" rx="21.4783" height="42.9565" width="234.837"></rect>
<rect fill="url(#paint0_linear_5950_26699)" rx="21.4783" height="42.9565" width="234.837"></rect>
<path fill="white" d="M36.9889 26.5903H28.5889L26.9329 30.4783H23.7169L31.2769 13.6783H34.3489L41.9329 30.4783H38.6689L36.9889 26.5903ZM35.9569 24.1423L32.7889 16.7983L29.6449 24.1423H35.9569ZM50.5735 17.5183C52.1895 17.5183 53.4855 17.9903 54.4615 18.9343C55.4375 19.8783 55.9255 21.2783 55.9255 23.1343V30.4783H52.9255V23.5183C52.9255 22.3983 52.6615 21.5583 52.1335 20.9983C51.6055 20.4223 50.8535 20.1343 49.8775 20.1343C48.7735 20.1343 47.9015 20.4703 47.2615 21.1423C46.6215 21.7983 46.3015 22.7503 46.3015 23.9983V30.4783H43.3015V17.6623H46.1575V19.3183C46.6535 18.7263 47.2775 18.2783 48.0295 17.9743C48.7815 17.6703 49.6295 17.5183 50.5735 17.5183ZM71.0168 17.6623L65.0168 31.5103C64.4568 32.9023 63.7768 33.8783 62.9768 34.4383C62.1768 35.0143 61.2088 35.3023 60.0728 35.3023C59.4328 35.3023 58.8008 35.1983 58.1768 34.9903C57.5528 34.7823 57.0408 34.4943 56.6408 34.1263L57.8408 31.9183C58.1288 32.1903 58.4648 32.4063 58.8488 32.5663C59.2488 32.7263 59.6488 32.8063 60.0488 32.8063C60.5768 32.8063 61.0088 32.6703 61.3448 32.3983C61.6968 32.1263 62.0168 31.6703 62.3048 31.0303L62.5208 30.5263L56.9288 17.6623H60.0488L64.0808 27.1423L68.1368 17.6623H71.0168ZM84.6038 21.7423C85.5318 22.0463 86.2678 22.5583 86.8118 23.2783C87.3558 23.9823 87.6278 24.8623 87.6278 25.9183C87.6278 27.3743 87.0678 28.5023 85.9478 29.3023C84.8278 30.0863 83.1958 30.4783 81.0518 30.4783H72.6998V13.6783H80.5718C82.5558 13.6783 84.0838 14.0703 85.1558 14.8543C86.2278 15.6223 86.7638 16.6863 86.7638 18.0463C86.7638 18.8783 86.5718 19.6143 86.1878 20.2543C85.8038 20.8943 85.2758 21.3903 84.6038 21.7423ZM75.8198 16.1263V20.7583H80.2358C81.3238 20.7583 82.1558 20.5663 82.7318 20.1823C83.3238 19.7823 83.6198 19.2063 83.6198 18.4543C83.6198 17.6863 83.3238 17.1103 82.7318 16.7263C82.1558 16.3263 81.3238 16.1263 80.2358 16.1263H75.8198ZM80.8598 28.0303C83.2758 28.0303 84.4838 27.2223 84.4838 25.6063C84.4838 23.9903 83.2758 23.1823 80.8598 23.1823H75.8198V28.0303H80.8598ZM95.0856 17.5183C96.9736 17.5183 98.4136 17.9743 99.4056 18.8863C100.414 19.7823 100.918 21.1423 100.918 22.9663V30.4783H98.0856V28.9183C97.7176 29.4783 97.1896 29.9103 96.5016 30.2143C95.8296 30.5023 95.0136 30.6463 94.0536 30.6463C93.0936 30.6463 92.2536 30.4863 91.5336 30.1663C90.8136 29.8303 90.2536 29.3743 89.8536 28.7983C89.4696 28.2063 89.2776 27.5423 89.2776 26.8063C89.2776 25.6543 89.7016 24.7343 90.5496 24.0463C91.4136 23.3423 92.7656 22.9903 94.6056 22.9903H97.9176V22.7983C97.9176 21.9023 97.6456 21.2143 97.1016 20.7343C96.5736 20.2543 95.7816 20.0143 94.7256 20.0143C94.0056 20.0143 93.2936 20.1263 92.5896 20.3503C91.9016 20.5743 91.3176 20.8863 90.8376 21.2863L89.6616 19.1023C90.3336 18.5903 91.1416 18.1983 92.0856 17.9263C93.0296 17.6543 94.0296 17.5183 95.0856 17.5183ZM94.6776 28.4623C95.4296 28.4623 96.0936 28.2943 96.6696 27.9583C97.2616 27.6063 97.6776 27.1103 97.9176 26.4703V24.9823H94.8216C93.0936 24.9823 92.2296 25.5503 92.2296 26.6863C92.2296 27.2303 92.4456 27.6623 92.8776 27.9823C93.3096 28.3023 93.9096 28.4623 94.6776 28.4623ZM109.184 17.5183C111.072 17.5183 112.512 17.9743 113.504 18.8863C114.512 19.7823 115.016 21.1423 115.016 22.9663V30.4783H112.184V28.9183C111.816 29.4783 111.288 29.9103 110.6 30.2143C109.928 30.5023 109.112 30.6463 108.152 30.6463C107.192 30.6463 106.352 30.4863 105.632 30.1663C104.912 29.8303 104.352 29.3743 103.952 28.7983C103.568 28.2063 103.376 27.5423 103.376 26.8063C103.376 25.6543 103.8 24.7343 104.648 24.0463C105.512 23.3423 106.864 22.9903 108.704 22.9903H112.016V22.7983C112.016 21.9023 111.744 21.2143 111.2 20.7343C110.672 20.2543 109.88 20.0143 108.824 20.0143C108.104 20.0143 107.392 20.1263 106.688 20.3503C106 20.5743 105.416 20.8863 104.936 21.2863L103.76 19.1023C104.432 18.5903 105.24 18.1983 106.184 17.9263C107.128 17.6543 108.128 17.5183 109.184 17.5183ZM108.776 28.4623C109.528 28.4623 110.192 28.2943 110.768 27.9583C111.36 27.6063 111.776 27.1103 112.016 26.4703V24.9823H108.92C107.192 24.9823 106.328 25.5503 106.328 26.6863C106.328 27.2303 106.544 27.6623 106.976 27.9823C107.408 28.3023 108.008 28.4623 108.776 28.4623ZM123.882 30.7183C122.586 30.7183 121.33 30.5343 120.114 30.1663C118.914 29.7983 117.962 29.3103 117.258 28.7023L118.338 26.2783C119.026 26.8223 119.866 27.2703 120.858 27.6223C121.866 27.9583 122.874 28.1263 123.882 28.1263C125.13 28.1263 126.058 27.9263 126.666 27.5263C127.29 27.1263 127.602 26.5983 127.602 25.9423C127.602 25.4623 127.426 25.0703 127.074 24.7663C126.738 24.4463 126.306 24.1983 125.778 24.0223C125.25 23.8463 124.53 23.6463 123.618 23.4223C122.338 23.1183 121.298 22.8143 120.498 22.5103C119.714 22.2063 119.034 21.7343 118.458 21.0943C117.898 20.4383 117.618 19.5583 117.618 18.4543C117.618 17.5263 117.866 16.6863 118.362 15.9343C118.874 15.1663 119.634 14.5583 120.642 14.1103C121.666 13.6623 122.914 13.4383 124.386 13.4383C125.41 13.4383 126.418 13.5663 127.41 13.8223C128.402 14.0783 129.258 14.4463 129.978 14.9263L128.994 17.3503C128.258 16.9183 127.49 16.5903 126.69 16.3663C125.89 16.1423 125.114 16.0303 124.362 16.0303C123.13 16.0303 122.21 16.2383 121.602 16.6543C121.01 17.0703 120.714 17.6223 120.714 18.3103C120.714 18.7903 120.882 19.1823 121.218 19.4863C121.57 19.7903 122.01 20.0303 122.538 20.2063C123.066 20.3823 123.786 20.5823 124.698 20.8063C125.946 21.0943 126.97 21.3983 127.77 21.7183C128.57 22.0223 129.25 22.4943 129.81 23.1343C130.386 23.7743 130.674 24.6383 130.674 25.7263C130.674 26.6543 130.418 27.4943 129.906 28.2463C129.41 28.9983 128.65 29.5983 127.626 30.0463C126.602 30.4943 125.354 30.7183 123.882 30.7183Z"></path>
<path fill="white" d="M141.774 20.9681C142.105 21.0728 142.364 21.2492 142.551 21.4973C142.739 21.7399 142.833 22.0404 142.833 22.3987C142.833 22.9059 142.634 23.2974 142.237 23.573C141.846 23.8432 141.272 23.9783 140.517 23.9783H137.523V18.1894H140.352C141.057 18.1894 141.598 18.3245 141.972 18.5946C142.353 18.8648 142.543 19.2314 142.543 19.6945C142.543 19.9757 142.474 20.2265 142.336 20.4471C142.204 20.6676 142.017 20.8412 141.774 20.9681ZM138.855 19.1983V20.5628H140.186C140.517 20.5628 140.768 20.5049 140.939 20.3892C141.11 20.2734 141.195 20.1025 141.195 19.8764C141.195 19.6504 141.11 19.4822 140.939 19.372C140.768 19.2562 140.517 19.1983 140.186 19.1983H138.855ZM140.418 22.9694C140.771 22.9694 141.035 22.9115 141.212 22.7957C141.394 22.6799 141.485 22.5007 141.485 22.2581C141.485 21.7785 141.129 21.5387 140.418 21.5387H138.855V22.9694H140.418ZM146.504 21.9274V23.9783H145.165V21.9108L142.924 18.1894H144.346L145.892 20.7613L147.439 18.1894H148.754L146.504 21.9274Z"></path>
<g clip-path="url(#clip0_5950_26699)">
<path fill="white" d="M175.637 18.0635H178.665V25.7764H180.099V18.0635H183.255V16.9737H175.637V18.0635Z"></path>
<path fill="white" d="M206.664 16.9737V20.8018H202.386V16.9737H200.951V25.7764H202.386V21.892H206.664V25.7764H208.085V16.9737H206.664Z"></path>
<path fill="white" d="M183.969 20.7084V22.0413C183.969 24.104 185.666 25.7764 187.759 25.7764H190.995V24.6235H187.791C186.555 24.6235 185.553 23.6359 185.553 22.4179V21.9601H190.995V20.7904H185.553V20.3326C185.553 19.1146 186.555 18.127 187.791 18.127H190.995V16.9737H187.759C185.666 16.9737 183.969 18.646 183.969 20.7088V20.7084Z"></path>
<path fill="white" d="M192.364 20.7084V22.0413C192.364 24.104 194.061 25.7764 196.155 25.7764H199.39V24.6235H196.186C194.95 24.6235 193.948 23.6359 193.948 22.4179V20.3322C193.948 19.1142 194.95 18.1266 196.186 18.1266H199.39V16.9737H196.155C194.061 16.9737 192.364 18.646 192.364 20.7088V20.7084Z"></path>
<path fill="white" d="M161.681 17.1376L168.166 22.9508C168.207 22.9868 168.23 23.0381 168.23 23.0917V25.657C168.23 25.8224 168.031 25.9089 167.907 25.7979L161.422 19.9843C161.381 19.9483 161.358 19.897 161.358 19.8434V17.2785C161.358 17.1131 161.557 17.0266 161.682 17.1376H161.681Z"></path>
<path fill="white" d="M161.358 21.7455V25.8967C161.358 26.0016 161.445 26.0869 161.551 26.0869H166.063L161.358 21.7455Z"></path>
<path fill="white" d="M160.197 19.7405V17.0358C160.197 16.932 160.111 16.8482 160.006 16.8482H156.607C156.535 16.8482 156.47 16.8876 156.437 16.9504L151.867 25.7868C151.802 25.9116 151.894 26.0593 152.036 26.0593H154.733C154.805 26.0593 154.871 26.0191 154.903 25.9556L155.912 23.9594C155.944 23.8959 156.01 23.8557 156.082 23.8557H160.006C160.111 23.8557 160.196 23.7719 160.196 23.6681V21.933C160.196 21.8297 160.111 21.7458 160.006 21.7454L157.341 21.7393C157.2 21.7393 157.108 21.5927 157.171 21.4683L157.897 20.0321C157.929 19.9686 157.995 19.9284 158.067 19.9284H160.006C160.111 19.9284 160.196 19.8446 160.196 19.7408L160.197 19.7405Z"></path>
<path fill="white" d="M168.23 21.1897V17.0381C168.23 16.9332 168.144 16.8482 168.038 16.8482H163.525L168.23 21.1897Z"></path>
<path fill="white" d="M171.711 16.9355L169.375 21.172C169.364 21.1927 169.357 21.2157 169.357 21.239V25.9326C169.357 26.0103 169.421 26.0731 169.5 26.0731H172.34C172.419 26.0731 172.483 26.0103 172.483 25.9326V21.239C172.483 21.2157 172.489 21.1927 172.5 21.172L174.764 17.0694C174.815 16.976 174.746 16.862 174.639 16.862H171.837C171.785 16.862 171.737 16.8903 171.712 16.9355H171.711Z"></path>
</g>
<defs>
<linearGradient gradientUnits="userSpaceOnUse" y2="-14.98" x2="108.891" y1="35.1837" x1="-2.45499e-07" id="paint0_linear_5950_26699">
<stop stop-color="#9747FF"></stop>
<stop stop-color="#014AB8" offset="1"></stop>
</linearGradient>
<clipPath id="clip0_5950_26699">
<rect transform="translate(151.845 16.8481)" fill="white" height="9.23869" width="56.2395"></rect>
</clipPath>
</defs>
</svg>
