<svg xmlns="http://www.w3.org/2000/svg" fill="none" viewBox="0 0 229 39" height="39" width="229">
<path fill="url(#paint0_linear_6883_2832)" d="M29.2008 25.0772H20.8008L19.1448 28.9652H15.9288L23.4888 12.1652H26.5608L34.1448 28.9652H30.8808L29.2008 25.0772ZM28.1688 22.6292L25.0008 15.2852L21.8568 22.6292H28.1688ZM42.7854 16.0052C44.4014 16.0052 45.6974 16.4772 46.6734 17.4212C47.6494 18.3652 48.1374 19.7652 48.1374 21.6212V28.9652H45.1374V22.0052C45.1374 20.8852 44.8734 20.0452 44.3454 19.4852C43.8174 18.9092 43.0654 18.6212 42.0894 18.6212C40.9854 18.6212 40.1134 18.9572 39.4734 19.6292C38.8334 20.2852 38.5134 21.2372 38.5134 22.4852V28.9652H35.5134V16.1492H38.3694V17.8052C38.8654 17.2132 39.4894 16.7652 40.2414 16.4612C40.9934 16.1572 41.8414 16.0052 42.7854 16.0052ZM63.2287 16.1492L57.2287 29.9972C56.6687 31.3892 55.9887 32.3652 55.1887 32.9252C54.3887 33.5012 53.4207 33.7892 52.2847 33.7892C51.6447 33.7892 51.0127 33.6852 50.3887 33.4772C49.7647 33.2692 49.2527 32.9812 48.8527 32.6132L50.0527 30.4052C50.3407 30.6772 50.6767 30.8932 51.0607 31.0532C51.4607 31.2132 51.8607 31.2932 52.2607 31.2932C52.7887 31.2932 53.2207 31.1572 53.5567 30.8852C53.9087 30.6132 54.2287 30.1572 54.5167 29.5172L54.7327 29.0132L49.1407 16.1492H52.2607L56.2927 25.6292L60.3487 16.1492H63.2287ZM76.8157 20.2292C77.7437 20.5332 78.4797 21.0452 79.0237 21.7652C79.5677 22.4692 79.8397 23.3492 79.8397 24.4052C79.8397 25.8612 79.2797 26.9892 78.1597 27.7892C77.0397 28.5732 75.4077 28.9652 73.2637 28.9652H64.9117V12.1652H72.7837C74.7677 12.1652 76.2957 12.5572 77.3677 13.3412C78.4397 14.1092 78.9757 15.1732 78.9757 16.5332C78.9757 17.3652 78.7837 18.1012 78.3997 18.7412C78.0157 19.3812 77.4877 19.8772 76.8157 20.2292ZM68.0317 14.6132V19.2452H72.4477C73.5357 19.2452 74.3677 19.0532 74.9437 18.6692C75.5357 18.2692 75.8317 17.6932 75.8317 16.9412C75.8317 16.1732 75.5357 15.5972 74.9437 15.2132C74.3677 14.8132 73.5357 14.6132 72.4477 14.6132H68.0317ZM73.0717 26.5172C75.4877 26.5172 76.6957 25.7092 76.6957 24.0932C76.6957 22.4772 75.4877 21.6692 73.0717 21.6692H68.0317V26.5172H73.0717ZM87.2975 16.0052C89.1855 16.0052 90.6255 16.4612 91.6175 17.3732C92.6255 18.2692 93.1295 19.6292 93.1295 21.4532V28.9652H90.2975V27.4052C89.9295 27.9652 89.4015 28.3972 88.7135 28.7012C88.0415 28.9892 87.2255 29.1332 86.2655 29.1332C85.3055 29.1332 84.4655 28.9732 83.7455 28.6532C83.0255 28.3172 82.4655 27.8612 82.0655 27.2852C81.6815 26.6932 81.4895 26.0292 81.4895 25.2932C81.4895 24.1412 81.9135 23.2212 82.7615 22.5332C83.6255 21.8292 84.9775 21.4772 86.8175 21.4772H90.1295V21.2852C90.1295 20.3892 89.8575 19.7012 89.3135 19.2212C88.7855 18.7412 87.9935 18.5012 86.9375 18.5012C86.2175 18.5012 85.5055 18.6132 84.8015 18.8372C84.1135 19.0612 83.5295 19.3732 83.0495 19.7732L81.8735 17.5892C82.5455 17.0772 83.3535 16.6852 84.2975 16.4132C85.2415 16.1412 86.2415 16.0052 87.2975 16.0052ZM86.8895 26.9492C87.6415 26.9492 88.3055 26.7812 88.8815 26.4452C89.4735 26.0932 89.8895 25.5972 90.1295 24.9572V23.4692H87.0335C85.3055 23.4692 84.4415 24.0372 84.4415 25.1732C84.4415 25.7172 84.6575 26.1492 85.0895 26.4692C85.5215 26.7892 86.1215 26.9492 86.8895 26.9492ZM101.396 16.0052C103.284 16.0052 104.724 16.4612 105.716 17.3732C106.724 18.2692 107.228 19.6292 107.228 21.4532V28.9652H104.396V27.4052C104.028 27.9652 103.5 28.3972 102.812 28.7012C102.14 28.9892 101.324 29.1332 100.364 29.1332C99.4036 29.1332 98.5636 28.9732 97.8436 28.6532C97.1236 28.3172 96.5636 27.8612 96.1636 27.2852C95.7796 26.6932 95.5876 26.0292 95.5876 25.2932C95.5876 24.1412 96.0116 23.2212 96.8596 22.5332C97.7236 21.8292 99.0756 21.4772 100.916 21.4772H104.228V21.2852C104.228 20.3892 103.956 19.7012 103.412 19.2212C102.884 18.7412 102.092 18.5012 101.036 18.5012C100.316 18.5012 99.6036 18.6132 98.8996 18.8372C98.2116 19.0612 97.6276 19.3732 97.1476 19.7732L95.9716 17.5892C96.6436 17.0772 97.4516 16.6852 98.3956 16.4132C99.3396 16.1412 100.34 16.0052 101.396 16.0052ZM100.988 26.9492C101.74 26.9492 102.404 26.7812 102.98 26.4452C103.572 26.0932 103.988 25.5972 104.228 24.9572V23.4692H101.132C99.4036 23.4692 98.5396 24.0372 98.5396 25.1732C98.5396 25.7172 98.7556 26.1492 99.1876 26.4692C99.6196 26.7892 100.22 26.9492 100.988 26.9492ZM116.094 29.2052C114.798 29.2052 113.542 29.0212 112.326 28.6532C111.126 28.2852 110.174 27.7972 109.47 27.1892L110.55 24.7652C111.238 25.3092 112.078 25.7572 113.07 26.1092C114.078 26.4452 115.086 26.6132 116.094 26.6132C117.342 26.6132 118.27 26.4132 118.878 26.0132C119.502 25.6132 119.814 25.0852 119.814 24.4292C119.814 23.9492 119.638 23.5572 119.286 23.2532C118.95 22.9332 118.518 22.6852 117.99 22.5092C117.462 22.3332 116.742 22.1332 115.83 21.9092C114.55 21.6052 113.51 21.3012 112.71 20.9972C111.926 20.6932 111.246 20.2212 110.67 19.5812C110.11 18.9252 109.83 18.0452 109.83 16.9412C109.83 16.0132 110.078 15.1732 110.574 14.4212C111.086 13.6532 111.846 13.0452 112.854 12.5972C113.878 12.1492 115.126 11.9252 116.598 11.9252C117.622 11.9252 118.63 12.0532 119.622 12.3092C120.614 12.5652 121.47 12.9332 122.19 13.4132L121.206 15.8372C120.47 15.4052 119.702 15.0772 118.902 14.8532C118.102 14.6292 117.326 14.5172 116.574 14.5172C115.342 14.5172 114.422 14.7252 113.814 15.1412C113.222 15.5572 112.926 16.1092 112.926 16.7972C112.926 17.2772 113.094 17.6692 113.43 17.9732C113.782 18.2772 114.222 18.5172 114.75 18.6932C115.278 18.8692 115.998 19.0692 116.91 19.2932C118.158 19.5812 119.182 19.8852 119.982 20.2052C120.782 20.5092 121.462 20.9812 122.022 21.6212C122.598 22.2612 122.886 23.1252 122.886 24.2132C122.886 25.1412 122.63 25.9812 122.118 26.7332C121.622 27.4852 120.862 28.0852 119.838 28.5332C118.814 28.9812 117.566 29.2052 116.094 29.2052Z"></path>
<g clip-path="url(#clip0_6883_2832)">
<path fill="#014AB8" d="M174 16.2888H177.26V24.5925H178.804V16.2888H182.202V15.1156H174V16.2888Z"></path>
<path fill="#014AB8" d="M207.405 15.1156V19.237H202.799V15.1156H201.254V24.5925H202.799V20.4106H207.405V24.5925H208.934V15.1156H207.405Z"></path>
<path fill="#014AB8" d="M182.971 19.1364V20.5713C182.971 22.7921 184.798 24.5925 187.051 24.5925H190.535V23.3513H187.086C185.755 23.3513 184.676 22.2881 184.676 20.9768V20.484H190.535V19.2246H184.676V18.7317C184.676 17.4204 185.755 16.3572 187.086 16.3572H190.535V15.1156H187.051C184.798 15.1156 182.971 16.916 182.971 19.1368V19.1364Z"></path>
<path fill="#014AB8" d="M192.01 19.1364V20.5713C192.01 22.7921 193.837 24.5925 196.09 24.5925H199.574V23.3513H196.125C194.794 23.3513 193.715 22.2881 193.715 20.9768V18.7313C193.715 17.42 194.794 16.3568 196.125 16.3568H199.574V15.1156H196.09C193.837 15.1156 192.01 16.916 192.01 19.1368V19.1364Z"></path>
<path fill="#014AB8" d="M158.974 15.2919L165.956 21.5504C166 21.5891 166.025 21.6444 166.025 21.7021V24.4639C166.025 24.6419 165.81 24.7351 165.677 24.6156L158.695 18.3567C158.652 18.3179 158.627 18.2627 158.627 18.205V15.4436C158.627 15.2656 158.841 15.1724 158.975 15.2919H158.974Z"></path>
<path fill="#014AB8" d="M158.627 20.2528V24.722C158.627 24.8349 158.72 24.9268 158.835 24.9268H163.692L158.627 20.2528Z"></path>
<path fill="#014AB8" d="M157.377 18.0943V15.1824C157.377 15.0707 157.286 14.9805 157.172 14.9805H153.512C153.435 14.9805 153.365 15.0229 153.33 15.0905L148.409 24.6037C148.34 24.7381 148.439 24.8971 148.592 24.8971H151.495C151.573 24.8971 151.644 24.8539 151.678 24.7854L152.765 22.6364C152.799 22.568 152.87 22.5247 152.948 22.5247H157.172C157.285 22.5247 157.377 22.4344 157.377 22.3228V20.4547C157.377 20.3435 157.285 20.2532 157.172 20.2528L154.303 20.2462C154.151 20.2462 154.052 20.0884 154.12 19.9545L154.902 18.4083C154.936 18.3399 155.007 18.2966 155.085 18.2966H157.172C157.285 18.2966 157.377 18.2063 157.377 18.0947L157.377 18.0943Z"></path>
<path fill="#014AB8" d="M166.026 19.6545V15.1849C166.026 15.072 165.934 14.9805 165.819 14.9805H160.961L166.026 19.6545Z"></path>
<path fill="#014AB8" d="M169.774 15.0744L167.259 19.6354C167.247 19.6577 167.24 19.6824 167.24 19.7075V24.7607C167.24 24.8443 167.309 24.9119 167.394 24.9119H170.451C170.536 24.9119 170.605 24.8443 170.605 24.7607V19.7075C170.605 19.6824 170.611 19.6577 170.624 19.6354L173.06 15.2186C173.116 15.118 173.042 14.9952 172.926 14.9952H169.909C169.853 14.9952 169.802 15.0257 169.775 15.0744H169.774Z"></path>
</g>
<path fill="#014AB8" d="M138.94 20.193C139.178 20.2686 139.365 20.3959 139.501 20.5749C139.636 20.75 139.704 20.9668 139.704 21.2254C139.704 21.5914 139.56 21.8739 139.274 22.0728C138.991 22.2678 138.578 22.3652 138.033 22.3652H135.872V18.1878H137.913C138.422 18.1878 138.812 18.2853 139.083 18.4802C139.357 18.6752 139.495 18.9398 139.495 19.2739C139.495 19.4768 139.445 19.6579 139.346 19.817C139.25 19.9761 139.115 20.1015 138.94 20.193ZM136.833 18.9159V19.9006H137.794C138.033 19.9006 138.214 19.8588 138.337 19.7752C138.46 19.6917 138.522 19.5684 138.522 19.4052C138.522 19.2421 138.46 19.1208 138.337 19.0412C138.214 18.9577 138.033 18.9159 137.794 18.9159H136.833ZM137.961 21.6372C138.216 21.6372 138.407 21.5954 138.534 21.5118C138.665 21.4283 138.731 21.299 138.731 21.1239C138.731 20.7778 138.474 20.6048 137.961 20.6048H136.833V21.6372H137.961ZM142.353 20.8852V22.3652H141.386V20.8733L139.769 18.1878H140.796L141.912 20.0438L143.028 18.1878H143.976L142.353 20.8852Z"></path>
<rect stroke-width="0.314672" stroke="#F8FCFF" rx="18.8774" height="37.7548" width="227.805" y="1.08776" x="0.157336"></rect>
<rect stroke-width="0.314672" stroke="url(#paint1_linear_6883_2832)" rx="18.8774" height="37.7548" width="227.805" y="1.08776" x="0.157336"></rect>
<defs>
<linearGradient gradientUnits="userSpaceOnUse" y2="-16.0785" x2="35.5042" y1="28.8987" x1="14.678" id="paint0_linear_6883_2832">
<stop stop-color="#9747FF"></stop>
<stop stop-color="#014AB8" offset="1"></stop>
</linearGradient>
<linearGradient gradientUnits="userSpaceOnUse" y2="-36.0931" x2="17.4332" y1="32.1114" x1="-2.89557" id="paint1_linear_6883_2832">
<stop stop-color="#9747FF"></stop>
<stop stop-color="#014AB8" offset="1"></stop>
</linearGradient>
<clipPath id="clip0_6883_2832">
<rect transform="translate(148.387 14.9805)" fill="white" height="9.94633" width="60.5472"></rect>
</clipPath>
</defs>
</svg>
