<svg xmlns="http://www.w3.org/2000/svg" fill="none" viewBox="0 0 50 50" height="50" width="50">
<rect fill="#B9D9FF" rx="25" height="50" width="50"></rect>
<path fill="#0B305B" d="M12 13C10.3549 13 9 14.3549 9 16V30C9 31.6451 10.3549 33 12 33H22.9883C22.9877 33.3224 22.987 33.6538 22.9883 34.0234C22.99 34.5136 22.9897 34.6304 22.9922 35H17V37H31V35H24.9922C24.9897 34.6303 24.99 34.5094 24.9883 34.0156C24.987 33.6474 24.9877 33.3187 24.9883 33H36C37.6451 33 39 31.6451 39 30V16C39 14.3549 37.6451 13 36 13H12ZM12 15H36C36.5629 15 37 15.4371 37 16V30C37 30.5629 36.5629 31 36 31H12C11.4371 31 11 30.5629 11 30V16C11 15.4371 11.4371 15 12 15ZM21.9883 17C21.7988 17.0019 21.6137 17.0576 21.4546 17.1607C21.2956 17.2637 21.1691 17.4099 21.0898 17.582L18.6094 23H13V25H19.25C19.4415 25.0003 19.6291 24.9456 19.7904 24.8425C19.9518 24.7393 20.0801 24.5919 20.1602 24.418L21.9375 20.5391L25.0703 28.3711C25.1401 28.5465 25.2581 28.6986 25.4106 28.8098C25.5632 28.921 25.7442 28.9867 25.9325 28.9994C26.1209 29.012 26.309 28.9711 26.4751 28.8814C26.6412 28.7916 26.7785 28.6567 26.8711 28.4922L28.8359 25H35V23H28.25C28.0728 22.9999 27.8988 23.0469 27.7458 23.1361C27.5927 23.2253 27.4661 23.3536 27.3789 23.5078L26.1523 25.6875L22.9297 17.6289C22.8547 17.4412 22.7246 17.2807 22.5565 17.1684C22.3885 17.0561 22.1904 16.9974 21.9883 17Z"></path>
</svg>
