<svg xmlns="http://www.w3.org/2000/svg" fill="none" viewBox="0 0 50 51" height="51" width="50">
<rect fill="#E9F3FF" rx="25" height="50" width="50" y="0.5"></rect>
<path fill="#0B305B" d="M29.375 19.75L29.3359 19.7891C29.1406 19.7891 28.9453 19.75 28.75 19.75H23.75C23.0859 19.75 22.4609 19.8672 21.875 19.9844C21.875 19.9062 21.875 19.8672 21.875 19.75C21.875 17.6797 23.5156 16 25.625 16C27.6953 16 29.375 17.6797 29.375 19.75ZM28.75 21C28.8672 21 28.9844 21.0391 29.1406 21.0391C29.2969 21.0391 29.4531 21.0391 29.6484 21.0781C30.3125 20.2969 31.3281 19.75 32.5 19.75H33.75L33.0078 22.7188C33.6328 23.2656 34.1016 23.9688 34.4531 24.75H35C35.6641 24.75 36.25 25.3359 36.25 26V29.75C36.25 30.4531 35.6641 31 35 31H33.75C33.3594 31.5078 32.9688 31.8984 32.5 32.25V34.75C32.5 35.4531 31.9141 36 31.25 36H30C29.2969 36 28.75 35.4531 28.75 34.75V33.5H23.75V34.75C23.75 35.4531 23.1641 36 22.5 36H21.25C20.5469 36 20 35.4531 20 34.75V32.25C18.6328 31.2344 17.6953 29.6719 17.5 27.875H16.4062C14.9219 27.875 13.75 26.7031 13.75 25.2188C13.75 23.7734 14.9219 22.5625 16.4062 22.5625H16.5625C17.0703 22.5625 17.5 22.9922 17.5 23.5C17.5 24.0469 17.0703 24.4375 16.5625 24.4375H16.4062C15.9375 24.4375 15.625 24.7891 15.625 25.2188C15.625 25.6484 15.9375 26 16.4062 26H17.6172C18.0859 23.6953 19.8438 21.8203 22.1484 21.2344C22.6562 21.0781 23.1641 21 23.75 21H28.75ZM30.3125 25.375C29.7656 25.375 29.375 25.8047 29.375 26.3125C29.375 26.8594 29.7656 27.25 30.3125 27.25C30.8203 27.25 31.25 26.8594 31.25 26.3125C31.25 25.8047 30.8203 25.375 30.3125 25.375Z"></path>
</svg>
