<svg xmlns="http://www.w3.org/2000/svg" fill="none" viewBox="0 0 160 175" height="175" width="160">
<g filter="url(#filter0_d_5950_26662)">
<ellipse style="mix-blend-mode:multiply" fill="url(#paint0_linear_5950_26662)" transform="matrix(0.864408 0.502791 -0.497215 0.867628 62.0479 0)" ry="49.3222" rx="49.1392" cy="49.3222" cx="49.1392"></ellipse>
<ellipse fill="url(#paint1_linear_5950_26662)" transform="matrix(0.864408 0.502791 -0.497215 0.867628 62.0479 0)" ry="49.3222" rx="49.1392" cy="49.3222" cx="49.1392"></ellipse>
<ellipse fill="white" ry="35.7885" rx="35.5234" cy="68.0273" cx="79.8906"></ellipse>
<path fill="#0B305B" d="M79.9375 72C76.375 72 73.4375 69.125 73.5 65.5C73.5 61.9375 76.375 59 79.9375 59C83.5 59 86.4375 61.9375 86.4375 65.5C86.4375 69.125 83.5625 72 79.9375 72ZM83.0625 74C88 74 92 77.75 92 82.375C92 83.3125 91.1875 84 90.1875 84H69.75C68.75 84 68 83.3125 68 82.375C68 77.75 71.9375 74 76.875 74H83.0625ZM92 62C89.1875 62 87 59.8125 87 57C87 54.25 89.1875 52 92 52C94.75 52 97 54.25 97 57C97 59.8125 94.75 62 92 62ZM71.4375 65.5C71.4375 67.625 72.25 69.5625 73.5625 71H61.0625C60.4375 71 60 70.5 60 69.875C60 66.625 62.4375 64 65.5 64H69.3125C70.125 64 70.875 64.1875 71.5625 64.5625C71.5 64.875 71.4375 65.1875 71.4375 65.5ZM68 62C65.1875 62 63 59.8125 63 57C63 54.25 65.1875 52 68 52C70.75 52 73 54.25 73 57C73 59.8125 70.75 62 68 62ZM94.4375 64C97.5 64 100 66.625 100 69.875C100 70.5 99.5 71 98.875 71H86.375C87.6875 69.5625 88.4375 67.625 88.4375 65.5C88.4375 65.1875 88.375 64.875 88.375 64.5625C89.0625 64.25 89.8125 64 90.625 64H94.4375Z"></path>
<path fill="url(#paint2_linear_5950_26662)" d="M79.9375 72C76.375 72 73.4375 69.125 73.5 65.5C73.5 61.9375 76.375 59 79.9375 59C83.5 59 86.4375 61.9375 86.4375 65.5C86.4375 69.125 83.5625 72 79.9375 72ZM83.0625 74C88 74 92 77.75 92 82.375C92 83.3125 91.1875 84 90.1875 84H69.75C68.75 84 68 83.3125 68 82.375C68 77.75 71.9375 74 76.875 74H83.0625ZM92 62C89.1875 62 87 59.8125 87 57C87 54.25 89.1875 52 92 52C94.75 52 97 54.25 97 57C97 59.8125 94.75 62 92 62ZM71.4375 65.5C71.4375 67.625 72.25 69.5625 73.5625 71H61.0625C60.4375 71 60 70.5 60 69.875C60 66.625 62.4375 64 65.5 64H69.3125C70.125 64 70.875 64.1875 71.5625 64.5625C71.5 64.875 71.4375 65.1875 71.4375 65.5ZM68 62C65.1875 62 63 59.8125 63 57C63 54.25 65.1875 52 68 52C70.75 52 73 54.25 73 57C73 59.8125 70.75 62 68 62ZM94.4375 64C97.5 64 100 66.625 100 69.875C100 70.5 99.5 71 98.875 71H86.375C87.6875 69.5625 88.4375 67.625 88.4375 65.5C88.4375 65.1875 88.375 64.875 88.375 64.5625C89.0625 64.25 89.8125 64 90.625 64H94.4375Z"></path>
</g>
<defs>
<filter color-interpolation-filters="sRGB" filterUnits="userSpaceOnUse" height="195" width="194" y="-2" x="-17" id="filter0_d_5950_26662">
<feFlood result="BackgroundImageFix" flood-opacity="0"></feFlood>
<feColorMatrix result="hardAlpha" values="0 0 0 0 0 0 0 0 0 0 0 0 0 0 0 0 0 0 127 0" type="matrix" in="SourceAlpha"></feColorMatrix>
<feOffset dy="28"></feOffset>
<feGaussianBlur stdDeviation="15"></feGaussianBlur>
<feComposite operator="out" in2="hardAlpha"></feComposite>
<feColorMatrix values="0 0 0 0 0.0862745 0 0 0 0 0.262745 0 0 0 0 0.466667 0 0 0 0.22 0" type="matrix"></feColorMatrix>
<feBlend result="effect1_dropShadow_5950_26662" in2="BackgroundImageFix" mode="multiply"></feBlend>
<feBlend result="shape" in2="effect1_dropShadow_5950_26662" in="SourceGraphic" mode="normal"></feBlend>
</filter>
<linearGradient gradientUnits="userSpaceOnUse" y2="163.683" x2="49.1392" y1="0" x1="49.1392" id="paint0_linear_5950_26662">
<stop stop-color="#F0FAFF"></stop>
<stop stop-opacity="0" stop-color="#F0FAFF" offset="1"></stop>
</linearGradient>
<linearGradient gradientUnits="userSpaceOnUse" y2="0.416703" x2="85.2135" y1="88.6538" x1="71.7625" id="paint1_linear_5950_26662">
<stop stop-opacity="0" stop-color="#1F80F0"></stop>
<stop stop-color="#014AB8" offset="1"></stop>
</linearGradient>
<linearGradient gradientUnits="userSpaceOnUse" y2="69.8553" x2="105.372" y1="100" x1="80" id="paint2_linear_5950_26662">
<stop stop-color="#9747FF"></stop>
<stop stop-color="#1F80F0" offset="0.520833"></stop>
<stop stop-color="#014AB8" offset="1"></stop>
</linearGradient>
</defs>
</svg>
