<svg xmlns="http://www.w3.org/2000/svg" fill="none" viewBox="0 0 50 50" height="50" width="50">
<rect fill="#B9D9FF" rx="25" height="50" width="50"></rect>
<path fill="#0B305B" d="M24 11C17.2656 11 13 16.0469 13 22C13 25.0391 14.1406 27.0312 15.1719 28.5781C16.1953 30.1172 17 31.1641 17 32.75V37H19V32.75C19 30.4688 17.8047 28.9375 16.8281 27.4688C15.8594 26 15 24.5625 15 22C15 16.9531 18.2266 13 24 13C26.9922 13 28.9375 13.9297 30.2812 15.3125C31.6328 16.6953 32.3828 18.5938 32.6719 20.5781C32.7188 20.9219 32.8281 21.2578 33 21.5781L34.9766 25.125C35.0391 25.2266 35.0078 25.3047 34.8984 25.3516L33 26.0547V30C33 31.6641 32.3125 32.2266 31.5547 32.6016C30.7969 32.9844 30 33 30 33H29V37H31V34.75C31.4688 34.6953 31.7109 34.7578 32.4453 34.3984C33.6875 33.7734 35 32.3359 35 30V27.4453L35.6562 27.2031L35.6719 27.1953C36.8438 26.7031 37.3438 25.2656 36.7266 24.1562L34.75 20.6094C34.7031 20.5234 34.6641 20.4219 34.6484 20.2969C34.3125 18 33.4453 15.6797 31.7188 13.9141C29.9922 12.1484 27.4219 11 24 11ZM25.0156 17C22.6875 16.9844 21 18.9375 21 20.9922C21 22.3281 21.6094 23.4531 22.1328 24.3672C22.3906 24.8203 22.6406 25.2266 22.8047 25.5391C22.9688 25.8516 23 26.0781 23 26V28C23.0078 28.5547 23.4531 29 24 29H26.0078C26.5625 29 27.0078 28.5547 27.0078 28V26C27.0078 26.0781 27.0469 25.8516 27.2031 25.5391C27.3672 25.2266 27.6172 24.8281 27.875 24.375C28.3984 23.4609 29.0078 22.3438 29 21.0156C28.9844 18.7734 27.2266 17.0156 25.0156 17ZM25 19C26.2891 19.0078 26.9922 19.7031 27 21.0234C27.0078 21.6719 26.6172 22.5391 26.1406 23.375C25.8984 23.7969 25.6484 24.2031 25.4375 24.6094C25.375 24.7266 25.3672 24.8828 25.3125 25H24.6953C24.6406 24.8828 24.6406 24.7266 24.5781 24.6094C24.3672 24.2031 24.1094 23.7969 23.875 23.375C23.3906 22.5312 23 21.6562 23 20.9922C23 20.0469 23.8203 18.9922 25 19Z"></path>
</svg>
