<svg xmlns="http://www.w3.org/2000/svg" fill="none" viewBox="0 0 50 51" height="51" width="50">
<rect fill="#E9F3FF" rx="25" height="50" width="50" y="0.5"></rect>
<path fill="#0B305B" d="M24.4922 16.1172C24.8047 16 25.1562 16 25.4688 16.1172L34.2188 19.8672C34.7656 20.1016 35.0781 20.6875 34.9609 21.2734C34.8438 21.8594 34.3359 22.25 33.7109 22.25V22.5625C33.7109 23.1094 33.3203 23.5 32.7734 23.5H17.1484C16.6406 23.5 16.2109 23.1094 16.2109 22.5625V22.25C15.625 22.25 15.1172 21.8594 15 21.2734C14.8828 20.6875 15.1953 20.1016 15.7422 19.8672L24.4922 16.1172ZM25 21C25.6641 21 26.25 20.4531 26.25 19.75C26.25 19.0859 25.6641 18.5 25 18.5C24.2969 18.5 23.75 19.0859 23.75 19.75C23.75 20.4531 24.2969 21 25 21ZM19.9609 32.25H21.5234V24.75H24.0234V32.25H25.9375V24.75H28.4375V32.25H30V24.75H32.5V32.4453C32.5 32.4453 32.5391 32.4453 32.5391 32.4844L34.4141 33.7344C34.8828 34.0469 35.0781 34.5938 34.9219 35.1406C34.7656 35.6484 34.2969 36 33.75 36H16.2109C15.6641 36 15.1953 35.6484 15.0391 35.1406C14.8828 34.5938 15.0781 34.0469 15.5469 33.7344L17.4219 32.4844C17.4219 32.4453 17.4609 32.4453 17.4609 32.4453V24.75H19.9609V32.25Z"></path>
</svg>
