<svg xmlns="http://www.w3.org/2000/svg" fill="none" viewBox="0 0 50 51" height="51" width="50">
<rect fill="#E9F3FF" rx="25" height="50" width="50" y="0.5"></rect>
<path fill="#0B305B" d="M24.9609 28.5C22.7344 28.5 20.8984 26.7031 20.9375 24.4375C20.9375 22.2109 22.7344 20.375 24.9609 20.375C27.1875 20.375 29.0234 22.2109 29.0234 24.4375C29.0234 26.7031 27.2266 28.5 24.9609 28.5ZM26.9141 29.75C30 29.75 32.5 32.0938 32.5 34.9844C32.5 35.5703 31.9922 36 31.3672 36H18.5938C17.9688 36 17.5 35.5703 17.5 34.9844C17.5 32.0938 19.9609 29.75 23.0469 29.75H26.9141ZM32.5 22.25C30.7422 22.25 29.375 20.8828 29.375 19.125C29.375 17.4062 30.7422 16 32.5 16C34.2188 16 35.625 17.4062 35.625 19.125C35.625 20.8828 34.2188 22.25 32.5 22.25ZM19.6484 24.4375C19.6484 25.7656 20.1562 26.9766 20.9766 27.875H13.1641C12.7734 27.875 12.5 27.5625 12.5 27.1719C12.5 25.1406 14.0234 23.5 15.9375 23.5H18.3203C18.8281 23.5 19.2969 23.6172 19.7266 23.8516C19.6875 24.0469 19.6484 24.2422 19.6484 24.4375ZM17.5 22.25C15.7422 22.25 14.375 20.8828 14.375 19.125C14.375 17.4062 15.7422 16 17.5 16C19.2188 16 20.625 17.4062 20.625 19.125C20.625 20.8828 19.2188 22.25 17.5 22.25ZM34.0234 23.5C35.9375 23.5 37.5 25.1406 37.5 27.1719C37.5 27.5625 37.1875 27.875 36.7969 27.875H28.9844C29.8047 26.9766 30.2734 25.7656 30.2734 24.4375C30.2734 24.2422 30.2344 24.0469 30.2344 23.8516C30.6641 23.6562 31.1328 23.5 31.6406 23.5H34.0234Z"></path>
</svg>
