<svg xmlns="http://www.w3.org/2000/svg" fill="none" viewBox="0 0 50 50" height="50" width="50">
<rect fill="#D7F3D3" rx="25" height="50" width="50"></rect>
<path fill="#0B305B" d="M17.5 31.125C17.5 31.4766 17.7734 31.75 18.125 31.75H33.75C34.4141 31.75 35 32.3359 35 33C35 33.7031 34.4141 34.25 33.75 34.25H18.125C16.3672 34.25 15 32.8828 15 31.125V18C15 17.3359 15.5469 16.75 16.25 16.75C16.9141 16.75 17.5 17.3359 17.5 18V31.125ZM28.3594 26.3984C27.8906 26.9062 27.0703 26.9062 26.6016 26.3984L24.375 24.1719L20.8594 27.6484C20.3906 28.1562 19.5703 28.1562 19.1016 27.6484C18.5938 27.1797 18.5938 26.3594 19.1016 25.8906L23.4766 21.5156C23.9453 21.0078 24.7656 21.0078 25.2344 21.5156L27.5 23.7422L31.6016 19.6406C32.0703 19.1328 32.8906 19.1328 33.3594 19.6406C33.8672 20.1094 33.8672 20.9297 33.3594 21.3984L28.3594 26.3984Z"></path>
</svg>
