<svg xmlns="http://www.w3.org/2000/svg" fill="none" viewBox="0 0 50 50" height="50" width="50">
<rect fill="#B9D9FF" rx="25" height="50" width="50"></rect>
<path fill="#0B305B" d="M25 11C23.9518 11 22.9454 11.4152 22.2031 12.1602L18.7578 15.6016L18.3242 16.0352L18.0508 16.3086L12.1602 22.2031C11.4152 22.9454 11 23.9518 11 25C11 26.0482 11.4152 27.0546 12.1602 27.7969L14.9102 30.5469L15.6172 31.2578L22.2031 37.8398C22.9454 38.5848 23.9518 39 25 39C26.0482 39 27.0592 38.5855 27.8008 37.8359L34.3906 31.2461L37.8438 27.8008V27.7969C38.5739 27.0615 38.9937 26.0704 39 25.0273V25.0234C39.0096 23.9616 38.5874 22.9481 37.8398 22.2031L36.7305 21.0938L31.957 16.3164L27.8008 12.1602C27.0568 11.4135 26.0482 11 25 11ZM25 13C25.5318 13 26.0147 13.197 26.3867 13.5703V13.5742L29.1289 16.3164L25.0078 20.4375L20.8789 16.3086L23.6172 13.5742V13.5703C23.9909 13.1953 24.4682 13 25 13ZM19.4648 17.7227L23.5938 21.8555L16.3203 29.1328L13.5742 26.3828H13.5703C13.1953 26.0091 13 25.5318 13 25C13 24.4682 13.1953 23.9909 13.5703 23.6172H13.5742L19.4648 17.7227ZM30.543 17.7305L34.6016 21.793L30.457 25.8906L26.4219 21.8555L30.543 17.7305ZM36.0195 23.207L36.4258 23.6172H36.4297C36.8091 23.9954 37.0053 24.475 37 25.0078V25.0117C36.9974 25.5353 36.7988 26.0149 36.4258 26.3906L33.6875 29.125L31.8711 27.3047L36.0195 23.207ZM25.0078 23.2695L32.2734 30.5391L26.3828 36.4297H26.3789C26.0125 36.8001 25.5318 37 25 37C24.4682 37 23.9909 36.8047 23.6172 36.4297V36.4258L17.7383 30.5469L25.0078 23.2695Z"></path>
</svg>
