<svg xmlns="http://www.w3.org/2000/svg" fill="none" viewBox="0 0 50 50" height="50" width="50">
<rect fill="#E9F3FF" rx="25" height="50" width="50"></rect>
<path fill="#0B305B" d="M21.875 33.2734V31.75H28.125L28.0859 33.2734C28.0859 33.4688 28.0078 33.7812 27.8906 33.9375L27.2266 34.9531C27.0312 35.2656 26.5625 35.5 26.1719 35.5H23.7891C23.3984 35.5 22.9297 35.2656 22.7344 34.9531L22.0703 33.9375C21.9141 33.7422 21.875 33.5078 21.875 33.2734ZM24.9609 15.5391C28.75 15.5 31.875 18.5859 31.875 22.375C31.875 24.1328 31.2109 25.6953 30.1562 26.8672C29.4922 27.6094 28.5156 29.1719 28.125 30.4609C28.125 30.4609 28.125 30.4609 28.125 30.5H21.8359C21.8359 30.4609 21.8359 30.4609 21.8359 30.4609C21.4453 29.1719 20.4688 27.6094 19.8047 26.8672C18.75 25.6562 18.125 24.0938 18.125 22.375C18.125 18.7422 20.9766 15.5391 24.9609 15.5391ZM25 19.2891C25.3125 19.2891 25.625 19.0156 25.625 18.6641C25.625 18.3516 25.3125 18.0391 25 18.0391C22.5781 18.0391 20.625 19.9922 20.625 22.375C20.625 22.7266 20.8984 23 21.25 23C21.5625 23 21.875 22.7266 21.875 22.375C21.875 20.6562 23.2422 19.2891 25 19.2891Z"></path>
</svg>
