<svg xmlns="http://www.w3.org/2000/svg" fill="none" viewBox="0 0 235 43" height="43" width="235">
<rect fill="white" rx="21.4783" height="42.9565" width="234.057"></rect>
<rect fill="url(#paint0_linear_5950_26599)" rx="21.4783" height="42.9565" width="234.057"></rect>
<path fill="white" d="M23.7169 30.4783L31.2769 13.6783H34.3489L41.9329 30.4783H38.6689L32.1649 15.3343H33.4129L26.9329 30.4783H23.7169ZM27.1969 26.5903L28.0369 24.1423H37.1089L37.9489 26.5903H27.1969ZM50.5735 17.5183C51.5975 17.5183 52.5095 17.7183 53.3095 18.1183C54.1255 18.5183 54.7655 19.1343 55.2295 19.9663C55.6935 20.7823 55.9255 21.8383 55.9255 23.1343V30.4783H52.9255V23.5183C52.9255 22.3823 52.6535 21.5343 52.1095 20.9743C51.5815 20.4143 50.8375 20.1343 49.8775 20.1343C49.1735 20.1343 48.5495 20.2783 48.0055 20.5663C47.4615 20.8543 47.0375 21.2863 46.7335 21.8623C46.4455 22.4223 46.3015 23.1343 46.3015 23.9983V30.4783H43.3015V17.6623H46.1575V21.1183L45.6535 20.0623C46.1015 19.2463 46.7495 18.6223 47.5975 18.1903C48.4615 17.7423 49.4535 17.5183 50.5735 17.5183ZM60.0728 35.3023C59.4488 35.3023 58.8248 35.1983 58.2008 34.9903C57.5768 34.7823 57.0568 34.4943 56.6408 34.1263L57.8408 31.9183C58.1448 32.1903 58.4888 32.4063 58.8728 32.5663C59.2568 32.7263 59.6488 32.8063 60.0488 32.8063C60.5928 32.8063 61.0328 32.6703 61.3688 32.3983C61.7048 32.1263 62.0168 31.6703 62.3048 31.0303L63.0488 29.3503L63.2888 28.9903L68.1368 17.6623H71.0168L65.0168 31.5103C64.6168 32.4703 64.1688 33.2303 63.6728 33.7903C63.1928 34.3503 62.6488 34.7423 62.0408 34.9663C61.4488 35.1903 60.7928 35.3023 60.0728 35.3023ZM62.7128 30.9343L56.9288 17.6623H60.0488L64.7528 28.7263L62.7128 30.9343ZM80.3586 30.7183C79.0786 30.7183 77.8866 30.5103 76.7826 30.0943C75.6946 29.6623 74.7426 29.0623 73.9266 28.2943C73.1266 27.5103 72.5026 26.5903 72.0546 25.5343C71.6066 24.4783 71.3826 23.3263 71.3826 22.0783C71.3826 20.8303 71.6066 19.6783 72.0546 18.6223C72.5026 17.5663 73.1346 16.6543 73.9506 15.8863C74.7666 15.1023 75.7186 14.5023 76.8066 14.0863C77.8946 13.6543 79.0866 13.4383 80.3826 13.4383C81.7586 13.4383 83.0146 13.6783 84.1506 14.1583C85.2866 14.6223 86.2466 15.3183 87.0306 16.2463L85.0146 18.1423C84.4066 17.4863 83.7266 16.9983 82.9746 16.6783C82.2226 16.3423 81.4066 16.1743 80.5266 16.1743C79.6466 16.1743 78.8386 16.3183 78.1026 16.6063C77.3826 16.8943 76.7506 17.3023 76.2066 17.8303C75.6786 18.3583 75.2626 18.9823 74.9586 19.7023C74.6706 20.4223 74.5266 21.2143 74.5266 22.0783C74.5266 22.9423 74.6706 23.7343 74.9586 24.4543C75.2626 25.1743 75.6786 25.7983 76.2066 26.3263C76.7506 26.8543 77.3826 27.2623 78.1026 27.5503C78.8386 27.8383 79.6466 27.9823 80.5266 27.9823C81.4066 27.9823 82.2226 27.8223 82.9746 27.5023C83.7266 27.1663 84.4066 26.6623 85.0146 25.9903L87.0306 27.9103C86.2466 28.8223 85.2866 29.5183 84.1506 29.9983C83.0146 30.4783 81.7506 30.7183 80.3586 30.7183ZM97.0309 30.4783V27.8863L96.8629 27.3343V22.7983C96.8629 21.9183 96.5989 21.2383 96.0709 20.7583C95.5429 20.2623 94.7429 20.0143 93.6709 20.0143C92.9509 20.0143 92.2389 20.1263 91.5349 20.3503C90.8469 20.5743 90.2629 20.8863 89.7829 21.2863L88.6069 19.1023C89.2949 18.5743 90.1109 18.1823 91.0549 17.9263C92.0149 17.6543 93.0069 17.5183 94.0309 17.5183C95.8869 17.5183 97.3189 17.9663 98.3269 18.8623C99.3509 19.7423 99.8629 21.1103 99.8629 22.9663V30.4783H97.0309ZM92.9989 30.6463C92.0389 30.6463 91.1989 30.4863 90.4789 30.1663C89.7589 29.8303 89.1989 29.3743 88.7989 28.7983C88.4149 28.2063 88.2229 27.5423 88.2229 26.8063C88.2229 26.0863 88.3909 25.4383 88.7269 24.8623C89.0789 24.2863 89.6469 23.8303 90.4309 23.4943C91.2149 23.1583 92.2549 22.9903 93.5509 22.9903H97.2709V24.9823H93.7669C92.7429 24.9823 92.0549 25.1503 91.7029 25.4863C91.3509 25.8063 91.1749 26.2063 91.1749 26.6863C91.1749 27.2303 91.3909 27.6623 91.8229 27.9823C92.2549 28.3023 92.8549 28.4623 93.6229 28.4623C94.3589 28.4623 95.0149 28.2943 95.5909 27.9583C96.1829 27.6223 96.6069 27.1263 96.8629 26.4703L97.3669 28.2703C97.0789 29.0223 96.5589 29.6063 95.8069 30.0223C95.0709 30.4383 94.1349 30.6463 92.9989 30.6463ZM111.129 30.4783V27.8863L110.961 27.3343V22.7983C110.961 21.9183 110.697 21.2383 110.169 20.7583C109.641 20.2623 108.841 20.0143 107.769 20.0143C107.049 20.0143 106.337 20.1263 105.633 20.3503C104.945 20.5743 104.361 20.8863 103.881 21.2863L102.705 19.1023C103.393 18.5743 104.209 18.1823 105.153 17.9263C106.113 17.6543 107.105 17.5183 108.129 17.5183C109.985 17.5183 111.417 17.9663 112.425 18.8623C113.449 19.7423 113.961 21.1103 113.961 22.9663V30.4783H111.129ZM107.097 30.6463C106.137 30.6463 105.297 30.4863 104.577 30.1663C103.857 29.8303 103.297 29.3743 102.897 28.7983C102.513 28.2063 102.321 27.5423 102.321 26.8063C102.321 26.0863 102.489 25.4383 102.825 24.8623C103.177 24.2863 103.745 23.8303 104.529 23.4943C105.313 23.1583 106.353 22.9903 107.649 22.9903H111.369V24.9823H107.865C106.841 24.9823 106.153 25.1503 105.801 25.4863C105.449 25.8063 105.273 26.2063 105.273 26.6863C105.273 27.2303 105.489 27.6623 105.921 27.9823C106.353 28.3023 106.953 28.4623 107.721 28.4623C108.457 28.4623 109.113 28.2943 109.689 27.9583C110.281 27.6223 110.705 27.1263 110.961 26.4703L111.465 28.2703C111.177 29.0223 110.657 29.6063 109.905 30.0223C109.169 30.4383 108.233 30.6463 107.097 30.6463ZM122.827 30.7183C121.515 30.7183 120.259 30.5343 119.059 30.1663C117.859 29.7823 116.907 29.2943 116.203 28.7023L117.283 26.2783C117.955 26.8063 118.787 27.2463 119.779 27.5983C120.771 27.9503 121.787 28.1263 122.827 28.1263C123.707 28.1263 124.419 28.0303 124.963 27.8383C125.507 27.6463 125.907 27.3903 126.163 27.0703C126.419 26.7343 126.547 26.3583 126.547 25.9423C126.547 25.4303 126.363 25.0223 125.995 24.7183C125.627 24.3983 125.147 24.1503 124.555 23.9743C123.979 23.7823 123.331 23.6063 122.611 23.4463C121.907 23.2863 121.195 23.1023 120.475 22.8943C119.771 22.6703 119.123 22.3903 118.531 22.0543C117.955 21.7023 117.483 21.2383 117.115 20.6623C116.747 20.0863 116.563 19.3503 116.563 18.4543C116.563 17.5423 116.803 16.7103 117.283 15.9583C117.779 15.1903 118.523 14.5823 119.515 14.1343C120.523 13.6703 121.795 13.4383 123.331 13.4383C124.339 13.4383 125.339 13.5663 126.331 13.8223C127.323 14.0783 128.187 14.4463 128.923 14.9263L127.939 17.3503C127.187 16.9023 126.411 16.5743 125.611 16.3663C124.811 16.1423 124.043 16.0303 123.307 16.0303C122.443 16.0303 121.739 16.1343 121.195 16.3423C120.667 16.5503 120.275 16.8223 120.019 17.1583C119.779 17.4943 119.659 17.8783 119.659 18.3103C119.659 18.8223 119.835 19.2383 120.187 19.5583C120.555 19.8623 121.027 20.1023 121.603 20.2783C122.195 20.4543 122.851 20.6303 123.571 20.8063C124.291 20.9663 125.003 21.1503 125.707 21.3583C126.427 21.5663 127.075 21.8383 127.651 22.1743C128.243 22.5103 128.715 22.9663 129.067 23.5423C129.435 24.1183 129.619 24.8463 129.619 25.7263C129.619 26.6223 129.371 27.4543 128.875 28.2223C128.395 28.9743 127.651 29.5823 126.643 30.0463C125.635 30.4943 124.363 30.7183 122.827 30.7183Z"></path>
<path fill="white" d="M136.523 23.9783V18.1894H139.352C140.079 18.1894 140.625 18.3272 140.989 18.6029C141.358 18.8785 141.543 19.2424 141.543 19.6945C141.543 19.9977 141.469 20.2624 141.32 20.4884C141.171 20.7089 140.967 20.8798 140.708 21.0011C140.449 21.1224 140.151 21.1831 139.815 21.1831L139.972 20.844C140.336 20.844 140.658 20.9046 140.939 21.0259C141.221 21.1417 141.438 21.3154 141.593 21.5469C141.753 21.7785 141.833 22.0624 141.833 22.3987C141.833 22.8949 141.637 23.2836 141.245 23.5648C140.854 23.8404 140.278 23.9783 139.517 23.9783H136.523ZM137.855 22.9694H139.418C139.765 22.9694 140.027 22.9142 140.203 22.804C140.385 22.6882 140.476 22.5062 140.476 22.2581C140.476 22.0156 140.385 21.8364 140.203 21.7206C140.027 21.5993 139.765 21.5387 139.418 21.5387H137.756V20.5628H139.186C139.511 20.5628 139.76 20.5077 139.93 20.3974C140.107 20.2817 140.195 20.108 140.195 19.8764C140.195 19.6504 140.107 19.4822 139.93 19.372C139.76 19.2562 139.511 19.1983 139.186 19.1983H137.855V22.9694ZM144.165 23.9783V21.6131L144.471 22.4235L141.924 18.1894H143.346L145.298 21.4394H144.479L146.439 18.1894H147.754L145.207 22.4235L145.504 21.6131V23.9783H144.165Z"></path>
<path fill="white" d="M162.672 17.1483L169.158 22.9616C169.198 22.9975 169.221 23.0488 169.221 23.1024V25.6678C169.221 25.8331 169.022 25.9197 168.898 25.8087L162.413 19.995C162.373 19.9591 162.35 19.9078 162.35 19.8542V17.2892C162.35 17.1238 162.548 17.0373 162.673 17.1483H162.672Z"></path>
<path fill="white" d="M162.35 21.7562V25.9074C162.35 26.0123 162.436 26.0977 162.543 26.0977H167.055L162.35 21.7562Z"></path>
<path fill="white" d="M161.188 19.7511V17.0464C161.188 16.9427 161.103 16.8589 160.997 16.8589H157.598C157.526 16.8589 157.461 16.8983 157.429 16.9611L152.858 25.7975C152.793 25.9223 152.885 26.07 153.027 26.07H155.724C155.796 26.07 155.862 26.0298 155.894 25.9663L156.903 23.9701C156.936 23.9066 157.002 23.8664 157.074 23.8664H160.997C161.102 23.8664 161.187 23.7825 161.187 23.6788V21.9437C161.187 21.8403 161.102 21.7565 160.997 21.7561L158.332 21.75C158.191 21.75 158.099 21.6034 158.162 21.479L158.888 20.0428C158.92 19.9793 158.987 19.9391 159.058 19.9391H160.997C161.102 19.9391 161.187 19.8553 161.187 19.7515L161.188 19.7511Z"></path>
<path fill="white" d="M169.222 21.2003V17.0487C169.222 16.9439 169.135 16.8589 169.029 16.8589H164.517L169.222 21.2003Z"></path>
<path fill="white" d="M172.703 16.9462L170.366 21.1827C170.355 21.2034 170.349 21.2264 170.349 21.2497V25.9433C170.349 26.021 170.412 26.0838 170.491 26.0838H173.331C173.41 26.0838 173.474 26.021 173.474 25.9433V21.2497C173.474 21.2264 173.48 21.2034 173.491 21.1827L175.755 17.0801C175.806 16.9867 175.738 16.8727 175.63 16.8727H172.828C172.776 16.8727 172.728 16.901 172.703 16.9462H172.703Z"></path>
<path fill="white" d="M177.772 18.1667H180.8V25.8796H182.235V18.1667H185.391V17.0769H177.772V18.1667Z"></path>
<path fill="white" d="M208.8 17.0769V20.905H204.522V17.0769H203.087V25.8796H204.522V21.9952H208.8V25.8796H210.22V17.0769H208.8Z"></path>
<path fill="white" d="M186.104 20.8117V22.1445C186.104 24.2073 187.802 25.8796 189.895 25.8796H193.13V24.7267H189.927C188.691 24.7267 187.689 23.7391 187.689 22.5211V22.0633H193.13V20.8936H187.689V20.4358C187.689 19.2178 188.691 18.2302 189.927 18.2302H193.13V17.0769H189.895C187.802 17.0769 186.104 18.7493 186.104 20.812V20.8117Z"></path>
<path fill="white" d="M194.5 20.8117V22.1445C194.5 24.2073 196.197 25.8796 198.29 25.8796H201.526V24.7267H198.322C197.086 24.7267 196.084 23.7391 196.084 22.5211V20.4354C196.084 19.2174 197.086 18.2298 198.322 18.2298H201.526V17.0769H198.29C196.197 17.0769 194.5 18.7493 194.5 20.812V20.8117Z"></path>
<defs>
<linearGradient gradientUnits="userSpaceOnUse" y2="-7.30797" x2="111.422" y1="42.9888" x1="1.82607e-07" id="paint0_linear_5950_26599">
<stop stop-color="#1CC800"></stop>
<stop stop-color="#014AB8" offset="1"></stop>
</linearGradient>
</defs>
</svg>
