<svg xmlns="http://www.w3.org/2000/svg" fill="none" viewBox="0 0 50 50" height="50" width="50">
<rect fill="#D7F8F9" rx="25" height="50" width="50"></rect>
<path fill="#0B305B" d="M36.25 18C36.25 18.7031 35.6641 19.25 35 19.25H31.25V23C31.25 23.7031 30.6641 24.25 30 24.25H26.25V28C26.25 28.7031 25.6641 29.25 25 29.25H21.25V33C21.25 33.7031 20.6641 34.25 20 34.25H15C14.2969 34.25 13.75 33.7031 13.75 33C13.75 32.3359 14.2969 31.75 15 31.75H18.75V28C18.75 27.3359 19.2969 26.75 20 26.75H23.75V23C23.75 22.3359 24.2969 21.75 25 21.75H28.75V18C28.75 17.3359 29.2969 16.75 30 16.75H35C35.6641 16.75 36.25 17.3359 36.25 18Z"></path>
</svg>
