<svg xmlns="http://www.w3.org/2000/svg" fill="none" viewBox="0 0 228 39" height="39" width="228">
<path fill="url(#paint0_linear_6883_3108)" d="M29.2008 24.5772H20.8008L19.1448 28.4652H15.9288L23.4888 11.6652H26.5608L34.1448 28.4652H30.8808L29.2008 24.5772ZM28.1688 22.1292L25.0008 14.7852L21.8568 22.1292H28.1688ZM42.7854 15.5052C44.4014 15.5052 45.6974 15.9772 46.6734 16.9212C47.6494 17.8652 48.1374 19.2652 48.1374 21.1212V28.4652H45.1374V21.5052C45.1374 20.3852 44.8734 19.5452 44.3454 18.9852C43.8174 18.4092 43.0654 18.1212 42.0894 18.1212C40.9854 18.1212 40.1134 18.4572 39.4734 19.1292C38.8334 19.7852 38.5134 20.7372 38.5134 21.9852V28.4652H35.5134V15.6492H38.3694V17.3052C38.8654 16.7132 39.4894 16.2652 40.2414 15.9612C40.9934 15.6572 41.8414 15.5052 42.7854 15.5052ZM63.2287 15.6492L57.2287 29.4972C56.6687 30.8892 55.9887 31.8652 55.1887 32.4252C54.3887 33.0012 53.4207 33.2892 52.2847 33.2892C51.6447 33.2892 51.0127 33.1852 50.3887 32.9772C49.7647 32.7692 49.2527 32.4812 48.8527 32.1132L50.0527 29.9052C50.3407 30.1772 50.6767 30.3932 51.0607 30.5532C51.4607 30.7132 51.8607 30.7932 52.2607 30.7932C52.7887 30.7932 53.2207 30.6572 53.5567 30.3852C53.9087 30.1132 54.2287 29.6572 54.5167 29.0172L54.7327 28.5132L49.1407 15.6492H52.2607L56.2927 25.1292L60.3487 15.6492H63.2287ZM72.5705 28.7052C70.8745 28.7052 69.3385 28.3372 67.9625 27.6012C66.6025 26.8492 65.5305 25.8172 64.7465 24.5052C63.9785 23.1932 63.5945 21.7132 63.5945 20.0652C63.5945 18.4172 63.9865 16.9372 64.7705 15.6252C65.5545 14.3132 66.6265 13.2892 67.9865 12.5532C69.3625 11.8012 70.8985 11.4252 72.5945 11.4252C73.9705 11.4252 75.2265 11.6652 76.3625 12.1452C77.4985 12.6252 78.4585 13.3212 79.2425 14.2332L77.2265 16.1292C76.0105 14.8172 74.5145 14.1612 72.7385 14.1612C71.5865 14.1612 70.5545 14.4172 69.6425 14.9292C68.7305 15.4252 68.0185 16.1212 67.5065 17.0172C66.9945 17.9132 66.7385 18.9292 66.7385 20.0652C66.7385 21.2012 66.9945 22.2172 67.5065 23.1132C68.0185 24.0092 68.7305 24.7132 69.6425 25.2252C70.5545 25.7212 71.5865 25.9692 72.7385 25.9692C74.5145 25.9692 76.0105 25.3052 77.2265 23.9772L79.2425 25.8972C78.4585 26.8092 77.4905 27.5052 76.3385 27.9852C75.2025 28.4652 73.9465 28.7052 72.5705 28.7052ZM86.2428 15.5052C88.1308 15.5052 89.5708 15.9612 90.5628 16.8732C91.5708 17.7692 92.0748 19.1292 92.0748 20.9532V28.4652H89.2428V26.9052C88.8748 27.4652 88.3468 27.8972 87.6588 28.2012C86.9868 28.4892 86.1708 28.6332 85.2108 28.6332C84.2508 28.6332 83.4108 28.4732 82.6908 28.1532C81.9708 27.8172 81.4108 27.3612 81.0108 26.7852C80.6268 26.1932 80.4348 25.5292 80.4348 24.7932C80.4348 23.6412 80.8588 22.7212 81.7068 22.0332C82.5708 21.3292 83.9228 20.9772 85.7628 20.9772H89.0748V20.7852C89.0748 19.8892 88.8028 19.2012 88.2588 18.7212C87.7308 18.2412 86.9388 18.0012 85.8828 18.0012C85.1628 18.0012 84.4508 18.1132 83.7468 18.3372C83.0588 18.5612 82.4748 18.8732 81.9948 19.2732L80.8188 17.0892C81.4908 16.5772 82.2988 16.1852 83.2428 15.9132C84.1868 15.6412 85.1868 15.5052 86.2428 15.5052ZM85.8348 26.4492C86.5868 26.4492 87.2508 26.2812 87.8268 25.9452C88.4188 25.5932 88.8348 25.0972 89.0748 24.4572V22.9692H85.9788C84.2508 22.9692 83.3868 23.5372 83.3868 24.6732C83.3868 25.2172 83.6028 25.6492 84.0348 25.9692C84.4668 26.2892 85.0668 26.4492 85.8348 26.4492ZM100.341 15.5052C102.229 15.5052 103.669 15.9612 104.661 16.8732C105.669 17.7692 106.173 19.1292 106.173 20.9532V28.4652H103.341V26.9052C102.973 27.4652 102.445 27.8972 101.757 28.2012C101.085 28.4892 100.269 28.6332 99.309 28.6332C98.349 28.6332 97.509 28.4732 96.789 28.1532C96.069 27.8172 95.509 27.3612 95.109 26.7852C94.725 26.1932 94.533 25.5292 94.533 24.7932C94.533 23.6412 94.957 22.7212 95.805 22.0332C96.669 21.3292 98.021 20.9772 99.861 20.9772H103.173V20.7852C103.173 19.8892 102.901 19.2012 102.357 18.7212C101.829 18.2412 101.037 18.0012 99.981 18.0012C99.261 18.0012 98.549 18.1132 97.845 18.3372C97.157 18.5612 96.573 18.8732 96.093 19.2732L94.917 17.0892C95.589 16.5772 96.397 16.1852 97.341 15.9132C98.285 15.6412 99.285 15.5052 100.341 15.5052ZM99.933 26.4492C100.685 26.4492 101.349 26.2812 101.925 25.9452C102.517 25.5932 102.933 25.0972 103.173 24.4572V22.9692H100.077C98.349 22.9692 97.485 23.5372 97.485 24.6732C97.485 25.2172 97.701 25.6492 98.133 25.9692C98.565 26.2892 99.165 26.4492 99.933 26.4492ZM115.039 28.7052C113.743 28.7052 112.487 28.5212 111.271 28.1532C110.071 27.7852 109.119 27.2972 108.415 26.6892L109.495 24.2652C110.183 24.8092 111.023 25.2572 112.015 25.6092C113.023 25.9452 114.031 26.1132 115.039 26.1132C116.287 26.1132 117.215 25.9132 117.823 25.5132C118.447 25.1132 118.759 24.5852 118.759 23.9292C118.759 23.4492 118.583 23.0572 118.231 22.7532C117.895 22.4332 117.463 22.1852 116.935 22.0092C116.407 21.8332 115.687 21.6332 114.775 21.4092C113.495 21.1052 112.455 20.8012 111.655 20.4972C110.871 20.1932 110.191 19.7212 109.615 19.0812C109.055 18.4252 108.775 17.5452 108.775 16.4412C108.775 15.5132 109.023 14.6732 109.519 13.9212C110.031 13.1532 110.791 12.5452 111.799 12.0972C112.823 11.6492 114.071 11.4252 115.543 11.4252C116.567 11.4252 117.575 11.5532 118.567 11.8092C119.559 12.0652 120.415 12.4332 121.135 12.9132L120.151 15.3372C119.415 14.9052 118.647 14.5772 117.847 14.3532C117.047 14.1292 116.271 14.0172 115.519 14.0172C114.287 14.0172 113.367 14.2252 112.759 14.6412C112.167 15.0572 111.871 15.6092 111.871 16.2972C111.871 16.7772 112.039 17.1692 112.375 17.4732C112.727 17.7772 113.167 18.0172 113.695 18.1932C114.223 18.3692 114.943 18.5692 115.855 18.7932C117.103 19.0812 118.127 19.3852 118.927 19.7052C119.727 20.0092 120.407 20.4812 120.967 21.1212C121.543 21.7612 121.831 22.6252 121.831 23.7132C121.831 24.6412 121.575 25.4812 121.063 26.2332C120.567 26.9852 119.807 27.5852 118.783 28.0332C117.759 28.4812 116.511 28.7052 115.039 28.7052Z"></path>
<g clip-path="url(#clip0_6883_3108)">
<path fill="#014AB8" d="M173 15.7888H176.26V24.0925H177.804V15.7888H181.202V14.6156H173V15.7888Z"></path>
<path fill="#014AB8" d="M206.405 14.6156V18.737H201.799V14.6156H200.254V24.0925H201.799V19.9106H206.405V24.0925H207.934V14.6156H206.405Z"></path>
<path fill="#014AB8" d="M181.971 18.6364V20.0713C181.971 22.2921 183.798 24.0925 186.051 24.0925H189.535V22.8513H186.086C184.755 22.8513 183.676 21.7881 183.676 20.4768V19.984H189.535V18.7246H183.676V18.2317C183.676 16.9204 184.755 15.8572 186.086 15.8572H189.535V14.6156H186.051C183.798 14.6156 181.971 16.416 181.971 18.6368V18.6364Z"></path>
<path fill="#014AB8" d="M191.01 18.6364V20.0713C191.01 22.2921 192.837 24.0925 195.09 24.0925H198.574V22.8513H195.125C193.794 22.8513 192.715 21.7881 192.715 20.4768V18.2313C192.715 16.92 193.794 15.8568 195.125 15.8568H198.574V14.6156H195.09C192.837 14.6156 191.01 16.416 191.01 18.6368V18.6364Z"></path>
<path fill="#014AB8" d="M157.974 14.7919L164.956 21.0504C165 21.0891 165.025 21.1444 165.025 21.2021V23.9639C165.025 24.1419 164.81 24.2351 164.677 24.1156L157.695 17.8567C157.652 17.8179 157.627 17.7627 157.627 17.705V14.9436C157.627 14.7656 157.841 14.6724 157.975 14.7919H157.974Z"></path>
<path fill="#014AB8" d="M157.627 19.7528V24.222C157.627 24.3349 157.72 24.4268 157.835 24.4268H162.692L157.627 19.7528Z"></path>
<path fill="#014AB8" d="M156.377 17.5943V14.6824C156.377 14.5707 156.286 14.4805 156.172 14.4805H152.512C152.435 14.4805 152.365 14.5229 152.33 14.5905L147.409 24.1037C147.34 24.2381 147.439 24.3971 147.592 24.3971H150.495C150.573 24.3971 150.644 24.3539 150.678 24.2854L151.765 22.1364C151.799 22.068 151.87 22.0247 151.948 22.0247H156.172C156.285 22.0247 156.377 21.9344 156.377 21.8228V19.9547C156.377 19.8435 156.285 19.7532 156.172 19.7528L153.303 19.7462C153.151 19.7462 153.052 19.5884 153.12 19.4545L153.902 17.9083C153.936 17.8399 154.007 17.7966 154.085 17.7966H156.172C156.285 17.7966 156.377 17.7063 156.377 17.5947L156.377 17.5943Z"></path>
<path fill="#014AB8" d="M165.026 19.1545V14.6849C165.026 14.572 164.934 14.4805 164.819 14.4805H159.961L165.026 19.1545Z"></path>
<path fill="#014AB8" d="M168.774 14.5744L166.259 19.1354C166.247 19.1577 166.24 19.1824 166.24 19.2075V24.2607C166.24 24.3443 166.309 24.4119 166.394 24.4119H169.451C169.536 24.4119 169.605 24.3443 169.605 24.2607V19.2075C169.605 19.1824 169.611 19.1577 169.624 19.1354L172.06 14.7186C172.116 14.618 172.042 14.4952 171.926 14.4952H168.909C168.853 14.4952 168.802 14.5257 168.775 14.5744H168.774Z"></path>
</g>
<path fill="#014AB8" d="M137.94 19.693C138.178 19.7686 138.365 19.8959 138.501 20.0749C138.636 20.25 138.704 20.4668 138.704 20.7254C138.704 21.0914 138.56 21.3739 138.274 21.5728C137.991 21.7678 137.578 21.8652 137.033 21.8652H134.872V17.6878H136.913C137.422 17.6878 137.812 17.7853 138.083 17.9802C138.357 18.1752 138.495 18.4398 138.495 18.7739C138.495 18.9768 138.445 19.1579 138.346 19.317C138.25 19.4761 138.115 19.6015 137.94 19.693ZM135.833 18.4159V19.4006H136.794C137.033 19.4006 137.214 19.3588 137.337 19.2752C137.46 19.1917 137.522 19.0684 137.522 18.9052C137.522 18.7421 137.46 18.6208 137.337 18.5412C137.214 18.4577 137.033 18.4159 136.794 18.4159H135.833ZM136.961 21.1372C137.216 21.1372 137.407 21.0954 137.534 21.0118C137.665 20.9283 137.731 20.799 137.731 20.6239C137.731 20.2778 137.474 20.1048 136.961 20.1048H135.833V21.1372H136.961ZM141.353 20.3852V21.8652H140.386V20.3733L138.769 17.6878H139.796L140.912 19.5438L142.028 17.6878H142.976L141.353 20.3852Z"></path>
<rect stroke-width="0.314672" stroke="#F8FCFF" rx="18.8774" height="37.7548" width="226.805" y="0.587756" x="0.157336"></rect>
<rect stroke-width="0.314672" stroke="url(#paint1_linear_6883_3108)" rx="18.8774" height="37.7548" width="226.805" y="0.587756" x="0.157336"></rect>
<defs>
<linearGradient gradientUnits="userSpaceOnUse" y2="-1.33162" x2="29.096" y1="33.4862" x1="11.3914" id="paint0_linear_6883_3108">
<stop stop-color="#1CC800"></stop>
<stop stop-color="#014AB8" offset="1"></stop>
</linearGradient>
<linearGradient gradientUnits="userSpaceOnUse" y2="-15.3365" x2="7.65854" y1="38.5285" x1="-9.88596" id="paint1_linear_6883_3108">
<stop stop-color="#1CC800"></stop>
<stop stop-color="#014AB8" offset="1"></stop>
</linearGradient>
<clipPath id="clip0_6883_3108">
<rect transform="translate(147.387 14.4805)" fill="white" height="9.94633" width="60.5472"></rect>
</clipPath>
</defs>
</svg>
