<svg xmlns="http://www.w3.org/2000/svg" fill="none" viewBox="0 0 50 51" height="51" width="50">
<rect fill="#E9F3FF" rx="25" height="50" width="50" y="0.5"></rect>
<path fill="#0B305B" d="M12.8516 25.1406C13.0859 24.9062 13.3984 24.75 13.75 24.75H15V32.25H13.75C13.3984 32.25 13.0859 32.1328 12.8516 31.8984C12.6172 31.6641 12.5 31.3516 12.5 31V26C12.5 25.6875 12.6172 25.375 12.8516 25.1406ZM30.625 19.75C32.3438 19.75 33.75 21.1562 33.75 22.875V33.5C33.75 34.9062 32.6172 36 31.25 36H18.75C17.3438 36 16.25 34.9062 16.25 33.5V22.875C16.25 21.1562 17.6172 19.75 19.375 19.75H23.75V17.25C23.75 16.5859 24.2969 16 25 16C25.6641 16 26.25 16.5859 26.25 17.25V19.75H30.625ZM22.5 32.25V31H20V32.25H22.5ZM21.25 27.5625C22.1094 27.5625 22.8125 26.8984 22.8125 26C22.8125 25.1406 22.1094 24.4375 21.25 24.4375C20.3516 24.4375 19.6875 25.1406 19.6875 26C19.6875 26.8984 20.3516 27.5625 21.25 27.5625ZM26.25 32.25V31H23.75V32.25H26.25ZM30 32.25V31H27.5V32.25H30ZM28.75 27.5625C29.6094 27.5625 30.3125 26.8984 30.3125 26C30.3125 25.1406 29.6094 24.4375 28.75 24.4375C27.8516 24.4375 27.1875 25.1406 27.1875 26C27.1875 26.8984 27.8516 27.5625 28.75 27.5625ZM37.1094 25.1406C37.3438 25.375 37.5 25.6875 37.5 26V31C37.5 31.3516 37.3438 31.6641 37.1094 31.8984C36.875 32.1328 36.5625 32.25 36.25 32.25H35V24.75H36.25C36.5625 24.75 36.875 24.9062 37.1094 25.1406Z"></path>
</svg>
