<svg xmlns="http://www.w3.org/2000/svg" fill="none" viewBox="0 0 160 175" height="175" width="160">
<g filter="url(#filter0_d_6711_20541)">
<ellipse style="mix-blend-mode:multiply" fill="url(#paint0_linear_6711_20541)" transform="matrix(0.864408 0.502791 -0.497215 0.867628 62.0469 0)" ry="49.3222" rx="49.1392" cy="49.3222" cx="49.1392"></ellipse>
<ellipse fill="url(#paint1_linear_6711_20541)" transform="matrix(0.864408 0.502791 -0.497215 0.867628 62.0469 0)" ry="49.3222" rx="49.1392" cy="49.3222" cx="49.1392"></ellipse>
<ellipse fill="white" ry="35.7885" rx="35.5234" cy="68.0273" cx="79.8906"></ellipse>
<path fill="#0B305B" d="M82 52C83.0625 52 84 52.9375 84 54V58C84 59.125 83.0625 60 82 60H77V62H90.5C92.5 62 94.1875 63.5 94.5 65.4375L95.875 74.8125C95.9375 75.0625 96 75.375 96 75.6875V80C96 82.25 94.1875 84 92 84H68C65.75 84 64 82.25 64 80V75.6875C64 75.375 64 75.0625 64.0625 74.8125L65.4375 65.4375C65.75 63.5 67.4375 62 69.4375 62H72.9375V60H67.9375C66.875 60 65.9375 59.125 65.9375 58V54C65.9375 52.9375 66.875 52 67.9375 52H82ZM70 55C69.4375 55 69 55.5 69 56C69 56.5625 69.4375 57 70 57H80C80.5 57 81 56.5625 81 56C81 55.5 80.5 55 80 55H70ZM69 80H91C91.5 80 92 79.5625 92 79C92 78.5 91.5 78 91 78H69C68.4375 78 68 78.5 68 79C68 79.5625 68.4375 80 69 80ZM71 65.5C70.125 65.5 69.5 66.1875 69.5 67C69.5 67.875 70.125 68.5 71 68.5C71.8125 68.5 72.5 67.875 72.5 67C72.5 66.1875 71.8125 65.5 71 65.5ZM77 68.5C77.8125 68.5 78.5 67.875 78.5 67C78.5 66.1875 77.8125 65.5 77 65.5C76.125 65.5 75.5 66.1875 75.5 67C75.5 67.875 76.125 68.5 77 68.5ZM74 70.5C73.125 70.5 72.5 71.1875 72.5 72C72.5 72.875 73.125 73.5 74 73.5C74.8125 73.5 75.5 72.875 75.5 72C75.5 71.1875 74.8125 70.5 74 70.5ZM83 68.5C83.8125 68.5 84.5 67.875 84.5 67C84.5 66.1875 83.8125 65.5 83 65.5C82.125 65.5 81.5 66.1875 81.5 67C81.5 67.875 82.125 68.5 83 68.5ZM80 70.5C79.125 70.5 78.5 71.1875 78.5 72C78.5 72.875 79.125 73.5 80 73.5C80.8125 73.5 81.5 72.875 81.5 72C81.5 71.1875 80.8125 70.5 80 70.5ZM89 68.5C89.8125 68.5 90.5 67.875 90.5 67C90.5 66.1875 89.8125 65.5 89 65.5C88.125 65.5 87.5 66.1875 87.5 67C87.5 67.875 88.125 68.5 89 68.5ZM86 70.5C85.125 70.5 84.5 71.1875 84.5 72C84.5 72.875 85.125 73.5 86 73.5C86.8125 73.5 87.5 72.875 87.5 72C87.5 71.1875 86.8125 70.5 86 70.5Z"></path>
<path fill="url(#paint2_linear_6711_20541)" d="M82 52C83.0625 52 84 52.9375 84 54V58C84 59.125 83.0625 60 82 60H77V62H90.5C92.5 62 94.1875 63.5 94.5 65.4375L95.875 74.8125C95.9375 75.0625 96 75.375 96 75.6875V80C96 82.25 94.1875 84 92 84H68C65.75 84 64 82.25 64 80V75.6875C64 75.375 64 75.0625 64.0625 74.8125L65.4375 65.4375C65.75 63.5 67.4375 62 69.4375 62H72.9375V60H67.9375C66.875 60 65.9375 59.125 65.9375 58V54C65.9375 52.9375 66.875 52 67.9375 52H82ZM70 55C69.4375 55 69 55.5 69 56C69 56.5625 69.4375 57 70 57H80C80.5 57 81 56.5625 81 56C81 55.5 80.5 55 80 55H70ZM69 80H91C91.5 80 92 79.5625 92 79C92 78.5 91.5 78 91 78H69C68.4375 78 68 78.5 68 79C68 79.5625 68.4375 80 69 80ZM71 65.5C70.125 65.5 69.5 66.1875 69.5 67C69.5 67.875 70.125 68.5 71 68.5C71.8125 68.5 72.5 67.875 72.5 67C72.5 66.1875 71.8125 65.5 71 65.5ZM77 68.5C77.8125 68.5 78.5 67.875 78.5 67C78.5 66.1875 77.8125 65.5 77 65.5C76.125 65.5 75.5 66.1875 75.5 67C75.5 67.875 76.125 68.5 77 68.5ZM74 70.5C73.125 70.5 72.5 71.1875 72.5 72C72.5 72.875 73.125 73.5 74 73.5C74.8125 73.5 75.5 72.875 75.5 72C75.5 71.1875 74.8125 70.5 74 70.5ZM83 68.5C83.8125 68.5 84.5 67.875 84.5 67C84.5 66.1875 83.8125 65.5 83 65.5C82.125 65.5 81.5 66.1875 81.5 67C81.5 67.875 82.125 68.5 83 68.5ZM80 70.5C79.125 70.5 78.5 71.1875 78.5 72C78.5 72.875 79.125 73.5 80 73.5C80.8125 73.5 81.5 72.875 81.5 72C81.5 71.1875 80.8125 70.5 80 70.5ZM89 68.5C89.8125 68.5 90.5 67.875 90.5 67C90.5 66.1875 89.8125 65.5 89 65.5C88.125 65.5 87.5 66.1875 87.5 67C87.5 67.875 88.125 68.5 89 68.5ZM86 70.5C85.125 70.5 84.5 71.1875 84.5 72C84.5 72.875 85.125 73.5 86 73.5C86.8125 73.5 87.5 72.875 87.5 72C87.5 71.1875 86.8125 70.5 86 70.5Z"></path>
</g>
<defs>
<filter color-interpolation-filters="sRGB" filterUnits="userSpaceOnUse" height="195" width="194" y="-2" x="-17" id="filter0_d_6711_20541">
<feFlood result="BackgroundImageFix" flood-opacity="0"></feFlood>
<feColorMatrix result="hardAlpha" values="0 0 0 0 0 0 0 0 0 0 0 0 0 0 0 0 0 0 127 0" type="matrix" in="SourceAlpha"></feColorMatrix>
<feOffset dy="28"></feOffset>
<feGaussianBlur stdDeviation="15"></feGaussianBlur>
<feComposite operator="out" in2="hardAlpha"></feComposite>
<feColorMatrix values="0 0 0 0 0.0862745 0 0 0 0 0.262745 0 0 0 0 0.466667 0 0 0 0.22 0" type="matrix"></feColorMatrix>
<feBlend result="effect1_dropShadow_6711_20541" in2="BackgroundImageFix" mode="multiply"></feBlend>
<feBlend result="shape" in2="effect1_dropShadow_6711_20541" in="SourceGraphic" mode="normal"></feBlend>
</filter>
<linearGradient gradientUnits="userSpaceOnUse" y2="163.683" x2="49.1392" y1="0" x1="49.1392" id="paint0_linear_6711_20541">
<stop stop-color="#F0FAFF"></stop>
<stop stop-opacity="0" stop-color="#F0FAFF" offset="1"></stop>
</linearGradient>
<linearGradient gradientUnits="userSpaceOnUse" y2="0.416703" x2="85.2135" y1="88.6538" x1="71.7625" id="paint1_linear_6711_20541">
<stop stop-opacity="0" stop-color="#1F80F0"></stop>
<stop stop-color="#014AB8" offset="1"></stop>
</linearGradient>
<linearGradient gradientUnits="userSpaceOnUse" y2="69.8553" x2="105.372" y1="100" x1="80" id="paint2_linear_6711_20541">
<stop stop-color="#00E9EA"></stop>
<stop stop-color="#1F80F0" offset="0.520833"></stop>
<stop stop-color="#014AB8" offset="1"></stop>
</linearGradient>
</defs>
</svg>
