<svg xmlns="http://www.w3.org/2000/svg" fill="none" viewBox="0 0 50 50" height="50" width="50">
<rect fill="#FFE2D5" rx="25" height="50" width="50"></rect>
<path fill="#0B305B" d="M28.8672 17.5312C31.7188 20.1484 33.75 24.4453 33.75 26.5156C33.75 31.4766 29.8047 35.5 25 35.5C20.1562 35.5 16.25 31.4766 16.25 26.5156C16.25 23.7031 18.9453 19.0938 22.8125 15.5C24.2969 16.9062 25.625 18.3906 26.6797 19.875C27.3438 19.0547 28.0469 18.2734 28.8672 17.5312ZM28.125 30.8125C30.0391 29.4844 30.4688 26.8672 29.4141 24.8359C29.2969 24.6016 29.1406 24.3281 28.9844 24.0547L26.6797 26.6719C26.6797 26.6719 23.0859 22.0625 22.8125 21.75C20.9375 24.0547 20 25.3828 20 26.8672C20 29.9141 22.2656 31.75 25.0781 31.75C26.2109 31.75 27.2656 31.3984 28.125 30.8125Z"></path>
</svg>
