<svg xmlns="http://www.w3.org/2000/svg" fill="none" viewBox="0 0 50 50" height="50" width="50">
<rect fill="#B9D9FF" rx="25" height="50" width="50"></rect>
<path fill="#0B305B" d="M11 13V14V37H23V33H26.9883C26.9877 33.3224 26.987 33.6538 26.9883 34.0234C26.99 34.5136 26.9897 34.6304 26.9922 35H25V37H31V35H28.9922C28.9897 34.6303 28.99 34.5094 28.9883 34.0156C28.987 33.6474 28.9877 33.3187 28.9883 33H36C37.6451 33 39 31.6451 39 30V20C39 18.3549 37.6451 17 36 17H23V13H11ZM13 15H21V35H13V15ZM15 17V19H19V17H15ZM23 19H36C36.5629 19 37 19.4371 37 20V30C37 30.5629 36.5629 31 36 31H23V19ZM15 21V23H19V21H15Z"></path>
</svg>
