<svg xmlns="http://www.w3.org/2000/svg" fill="none" viewBox="0 0 50 50" height="50" width="50">
<rect fill="#D7F3D3" rx="25" height="50" width="50"></rect>
<path fill="#0B305B" d="M25 15.5C25.1562 15.5 25.3516 15.5781 25.5078 15.6172L32.8516 18.7422C33.7109 19.1328 34.375 19.9531 34.375 20.9688C34.3359 24.875 32.7344 31.9453 26.0156 35.1875C25.3516 35.5 24.6094 35.5 23.9453 35.1875C17.2266 31.9453 15.625 24.875 15.5859 20.9688C15.5859 19.9531 16.25 19.1328 17.1094 18.7422L24.4531 15.6172C24.6094 15.5781 24.8047 15.5 25 15.5ZM25 32.8828C30.3516 30.2656 31.8359 24.5234 31.875 21.0469L25 18.1172V32.8828Z"></path>
</svg>
