<svg xmlns="http://www.w3.org/2000/svg" fill="none" viewBox="0 0 50 50" height="50" width="50">
<rect fill="#E9F3FF" rx="25" height="50" width="50"></rect>
<path fill="#0B305B" d="M32.1094 25.1484C31.875 25.3828 31.5625 25.5 31.25 25.5C30.8984 25.5 30.5859 25.3828 30.3516 25.1484L26.25 21.0469V33C26.25 33.7031 25.6641 34.25 25 34.25C24.375 34.25 23.75 33.7031 23.75 33V21.0469L19.6094 25.1484C19.1406 25.6562 18.3203 25.6562 17.8516 25.1484C17.3438 24.6797 17.3438 23.8594 17.8516 23.3906L24.1016 17.1406C24.5703 16.6328 25.3906 16.6328 25.8594 17.1406L32.1094 23.3906C32.6172 23.8594 32.6172 24.6797 32.1094 25.1484Z"></path>
</svg>
