<svg xmlns="http://www.w3.org/2000/svg" fill="none" viewBox="0 0 50 50" height="50" width="50">
<rect fill="#B9D9FF" rx="25" height="50" width="50"></rect>
<path fill="#0B305B" d="M28.75 25.5C28.75 26.3984 28.6719 27.2188 28.5938 28H21.3672C21.2891 27.2188 21.2109 26.3984 21.2109 25.5C21.2109 24.6406 21.2891 23.8203 21.3672 23H28.5938C28.6719 23.8203 28.75 24.6406 28.75 25.5ZM34.6484 23C34.8828 23.8203 35 24.6406 35 25.5C35 26.3984 34.8828 27.2188 34.6484 28H29.8438C29.9219 27.2188 30 26.3594 30 25.5C30 24.6406 29.9219 23.8203 29.8438 23H34.6484ZM34.2578 21.75H29.6875C29.2969 19.2891 28.5156 17.1797 27.5391 15.8516C30.5859 16.6719 33.0859 18.8594 34.2578 21.75ZM28.4375 21.75H21.5234C21.7578 20.3438 22.1484 19.0938 22.5781 18.0781C23.0078 17.1406 23.4375 16.4766 23.9062 16.0469C24.3359 15.6562 24.6875 15.5 25 15.5C25.2734 15.5 25.625 15.6562 26.0547 16.0469C26.5234 16.4766 26.9531 17.1406 27.3828 18.0781C27.8125 19.0938 28.2031 20.3438 28.4375 21.75ZM15.7031 21.75C16.875 18.8594 19.375 16.6719 22.4219 15.8516C21.4453 17.1797 20.6641 19.2891 20.2734 21.75H15.7031ZM20.1172 23C20.0391 23.8203 19.9609 24.6406 19.9609 25.5C19.9609 26.3594 20.0391 27.2188 20.1172 28H15.3125C15.0781 27.2188 15 26.3984 15 25.5C15 24.6406 15.0781 23.8203 15.3125 23H20.1172ZM22.5781 32.9609C22.1484 31.9453 21.7578 30.6953 21.5234 29.25H28.4375C28.2031 30.6953 27.8125 31.9453 27.3828 32.9609C26.9531 33.8984 26.5234 34.5625 26.0547 34.9922C25.625 35.3828 25.2734 35.5 24.9609 35.5C24.6875 35.5 24.3359 35.3828 23.9062 34.9922C23.4375 34.5625 23.0078 33.8984 22.5781 32.9609ZM22.4219 35.1875C19.375 34.3672 16.875 32.1797 15.7031 29.25H20.2734C20.6641 31.75 21.4453 33.8594 22.4219 35.1875ZM27.5391 35.1875C28.5156 33.8594 29.2969 31.75 29.6875 29.25H34.2578C33.0859 32.1797 30.5859 34.3672 27.5391 35.1875Z"></path>
</svg>
