<svg xmlns="http://www.w3.org/2000/svg" fill="none" viewBox="0 0 50 50" height="50" width="50">
<rect fill="#E9F3FF" rx="25" height="50" width="50"></rect>
<path fill="#0B305B" d="M29.375 19.25L29.3359 19.2891C29.1406 19.2891 28.9453 19.25 28.75 19.25H23.75C23.0859 19.25 22.4609 19.3672 21.875 19.4844C21.875 19.4062 21.875 19.3672 21.875 19.25C21.875 17.1797 23.5156 15.5 25.625 15.5C27.6953 15.5 29.375 17.1797 29.375 19.25ZM28.75 20.5C28.8672 20.5 28.9844 20.5391 29.1406 20.5391C29.2969 20.5391 29.4531 20.5391 29.6484 20.5781C30.3125 19.7969 31.3281 19.25 32.5 19.25H33.75L33.0078 22.2188C33.6328 22.7656 34.1016 23.4688 34.4531 24.25H35C35.6641 24.25 36.25 24.8359 36.25 25.5V29.25C36.25 29.9531 35.6641 30.5 35 30.5H33.75C33.3594 31.0078 32.9688 31.3984 32.5 31.75V34.25C32.5 34.9531 31.9141 35.5 31.25 35.5H30C29.2969 35.5 28.75 34.9531 28.75 34.25V33H23.75V34.25C23.75 34.9531 23.1641 35.5 22.5 35.5H21.25C20.5469 35.5 20 34.9531 20 34.25V31.75C18.6328 30.7344 17.6953 29.1719 17.5 27.375H16.4062C14.9219 27.375 13.75 26.2031 13.75 24.7188C13.75 23.2734 14.9219 22.0625 16.4062 22.0625H16.5625C17.0703 22.0625 17.5 22.4922 17.5 23C17.5 23.5469 17.0703 23.9375 16.5625 23.9375H16.4062C15.9375 23.9375 15.625 24.2891 15.625 24.7188C15.625 25.1484 15.9375 25.5 16.4062 25.5H17.6172C18.0859 23.1953 19.8438 21.3203 22.1484 20.7344C22.6562 20.5781 23.1641 20.5 23.75 20.5H28.75ZM30.3125 24.875C29.7656 24.875 29.375 25.3047 29.375 25.8125C29.375 26.3594 29.7656 26.75 30.3125 26.75C30.8203 26.75 31.25 26.3594 31.25 25.8125C31.25 25.3047 30.8203 24.875 30.3125 24.875Z"></path>
</svg>
