<svg xmlns="http://www.w3.org/2000/svg" fill="none" viewBox="0 0 50 50" height="50" width="50">
<rect fill="#ECDEFF" rx="25" height="50" width="50"></rect>
<path fill="#0B305B" d="M24.4922 15.6172C24.8047 15.5 25.1562 15.5 25.4688 15.6172L34.2188 19.3672C34.7656 19.6016 35.0781 20.1875 34.9609 20.7734C34.8438 21.3594 34.3359 21.75 33.7109 21.75V22.0625C33.7109 22.6094 33.3203 23 32.7734 23H17.1484C16.6406 23 16.2109 22.6094 16.2109 22.0625V21.75C15.625 21.75 15.1172 21.3594 15 20.7734C14.8828 20.1875 15.1953 19.6016 15.7422 19.3672L24.4922 15.6172ZM25 20.5C25.6641 20.5 26.25 19.9531 26.25 19.25C26.25 18.5859 25.6641 18 25 18C24.2969 18 23.75 18.5859 23.75 19.25C23.75 19.9531 24.2969 20.5 25 20.5ZM19.9609 31.75H21.5234V24.25H24.0234V31.75H25.9375V24.25H28.4375V31.75H30V24.25H32.5V31.9453C32.5 31.9453 32.5391 31.9453 32.5391 31.9844L34.4141 33.2344C34.8828 33.5469 35.0781 34.0938 34.9219 34.6406C34.7656 35.1484 34.2969 35.5 33.75 35.5H16.2109C15.6641 35.5 15.1953 35.1484 15.0391 34.6406C14.8828 34.0938 15.0781 33.5469 15.5469 33.2344L17.4219 31.9844C17.4219 31.9453 17.4609 31.9453 17.4609 31.9453V24.25H19.9609V31.75Z"></path>
</svg>
