<svg xmlns="http://www.w3.org/2000/svg" fill="none" viewBox="0 0 50 51" height="51" width="50">
<rect fill="#ECDEFF" rx="25" height="50" width="50" y="0.5"></rect>
<path fill="#0B305B" d="M13.75 19.125C13.75 18.1094 14.5703 17.25 15.625 17.25H19.375C20.3906 17.25 21.25 18.1094 21.25 19.125V19.75H28.75V19.125C28.75 18.1094 29.5703 17.25 30.625 17.25H34.375C35.3906 17.25 36.25 18.1094 36.25 19.125V22.875C36.25 23.9297 35.3906 24.75 34.375 24.75H30.625C29.5703 24.75 28.75 23.9297 28.75 22.875V22.25H21.25V22.875C21.25 22.9531 21.2109 23.0312 21.2109 23.0703L24.375 27.25H28.125C29.1406 27.25 30 28.1094 30 29.125V32.875C30 33.9297 29.1406 34.75 28.125 34.75H24.375C23.3203 34.75 22.5 33.9297 22.5 32.875V29.125C22.5 29.0859 22.5 29.0078 22.5 28.9297L19.375 24.75H15.625C14.5703 24.75 13.75 23.9297 13.75 22.875V19.125Z"></path>
</svg>
