<svg xmlns="http://www.w3.org/2000/svg" fill="none" viewBox="0 0 50 50" height="50" width="50">
<rect fill="#E4EAF1" rx="25" height="50" width="50"></rect>
<path fill="#0B305B" d="M24.9609 28C22.7344 28 20.8984 26.2031 20.9375 23.9375C20.9375 21.7109 22.7344 19.875 24.9609 19.875C27.1875 19.875 29.0234 21.7109 29.0234 23.9375C29.0234 26.2031 27.2266 28 24.9609 28ZM26.9141 29.25C30 29.25 32.5 31.5938 32.5 34.4844C32.5 35.0703 31.9922 35.5 31.3672 35.5H18.5938C17.9688 35.5 17.5 35.0703 17.5 34.4844C17.5 31.5938 19.9609 29.25 23.0469 29.25H26.9141ZM32.5 21.75C30.7422 21.75 29.375 20.3828 29.375 18.625C29.375 16.9062 30.7422 15.5 32.5 15.5C34.2188 15.5 35.625 16.9062 35.625 18.625C35.625 20.3828 34.2188 21.75 32.5 21.75ZM19.6484 23.9375C19.6484 25.2656 20.1562 26.4766 20.9766 27.375H13.1641C12.7734 27.375 12.5 27.0625 12.5 26.6719C12.5 24.6406 14.0234 23 15.9375 23H18.3203C18.8281 23 19.2969 23.1172 19.7266 23.3516C19.6875 23.5469 19.6484 23.7422 19.6484 23.9375ZM17.5 21.75C15.7422 21.75 14.375 20.3828 14.375 18.625C14.375 16.9062 15.7422 15.5 17.5 15.5C19.2188 15.5 20.625 16.9062 20.625 18.625C20.625 20.3828 19.2188 21.75 17.5 21.75ZM34.0234 23C35.9375 23 37.5 24.6406 37.5 26.6719C37.5 27.0625 37.1875 27.375 36.7969 27.375H28.9844C29.8047 26.4766 30.2734 25.2656 30.2734 23.9375C30.2734 23.7422 30.2344 23.5469 30.2344 23.3516C30.6641 23.1562 31.1328 23 31.6406 23H34.0234Z"></path>
</svg>
