<svg xmlns="http://www.w3.org/2000/svg" fill="none" viewBox="0 0 50 50" height="50" width="50">
<rect fill="#B9D9FF" rx="25" height="50" width="50"></rect>
<path fill="#0B305B" d="M24 11C16.8359 11 11 16.8359 11 24C11 31.1641 16.8359 37 24 37C31.1641 37 37 31.1641 37 24C37 16.8359 31.1641 11 24 11ZM23 13.0469V15H25V13.0469C26.2812 13.1641 27.4922 13.5078 28.6094 14.0156L27.6328 15.7031L29.3672 16.7031L30.3438 15.0156C31.3672 15.7422 32.2578 16.6328 32.9844 17.6562L31.2891 18.6328L32.2891 20.3672L33.9766 19.3906C34.4922 20.5078 34.8359 21.7188 34.9453 23H33V25H34.9453C34.8359 26.2812 34.4922 27.4922 33.9766 28.6094L32.2891 27.6328L31.2891 29.3672L32.9844 30.3438C32.2578 31.3672 31.3672 32.2578 30.3438 32.9844L29.3672 31.2891L27.6328 32.2891L28.6094 33.9766C27.4922 34.4922 26.2812 34.8359 25 34.9453V33H23V34.9453C21.7188 34.8359 20.5078 34.4922 19.3906 33.9766L20.3672 32.2891L18.6328 31.2891L17.6562 32.9844C16.6328 32.2578 15.7422 31.3672 15.0156 30.3438L16.7031 29.3672L15.7031 27.6328L14.0156 28.6094C13.5078 27.4922 13.1641 26.2812 13.0469 25H15V23H13.0469C13.1641 21.7188 13.5078 20.5078 14.0156 19.3906L15.7031 20.3672L16.7031 18.6328L15.0156 17.6562C15.7422 16.6328 16.6328 15.7422 17.6562 15.0156L18.6328 16.7031L20.3672 15.7031L19.3906 14.0156C20.5078 13.5078 21.7188 13.1641 23 13.0469ZM24 18L19 23H23V29H25V23H29L24 18Z"></path>
</svg>
