<svg xmlns="http://www.w3.org/2000/svg" fill="none" viewBox="0 0 50 50" height="50" width="50">
<rect fill="#D7F8F9" rx="25" height="50" width="50"></rect>
<path fill="#0B305B" d="M34.375 15.5C35.3906 15.5 36.25 16.3594 36.25 17.375V29.875C36.25 30.9297 35.3906 31.75 34.375 31.75H26.875L27.5 33.625H30.3125C30.8203 33.625 31.25 34.0547 31.25 34.5625C31.25 35.1094 30.8203 35.5 30.3125 35.5H19.6875C19.1406 35.5 18.75 35.1094 18.75 34.5625C18.75 34.0547 19.1406 33.625 19.6875 33.625H22.5L23.125 31.75H15.625C14.5703 31.75 13.75 30.9297 13.75 29.875V17.375C13.75 16.3594 14.5703 15.5 15.625 15.5H34.375ZM33.75 26.75V18H16.25V26.75H33.75Z"></path>
</svg>
