<svg xmlns="http://www.w3.org/2000/svg" fill="none" viewBox="0 0 50 50" height="50" width="50">
<rect fill="#D7F3D3" rx="25" height="50" width="50"></rect>
<path fill="#0B305B" d="M30.9766 28.7422C32.6562 29.9922 33.75 31.9453 33.75 34.1719C33.75 34.9141 33.125 35.5 32.3828 35.5H17.5781C16.8359 35.5 16.25 34.9141 16.25 34.1719C16.25 31.9453 17.3047 29.9922 18.9844 28.7422L17.5391 25.1094C17.3438 24.7188 17.6562 24.25 18.125 24.25H20.3516C20.1172 23.7031 20 23.0391 20 22.375C20 22.2188 20 22.0625 20.0391 21.9062C18.4766 21.5938 17.5 21.0859 17.5 20.5C17.5 19.875 18.7109 19.3281 20.625 18.9766C21.0938 17.2969 21.8359 15.5 22.8906 15.5C23.3203 15.5 23.6719 15.6953 23.9844 15.9297C24.5703 16.3984 25.3906 16.3984 26.0156 15.9297C26.2891 15.6953 26.6797 15.5 27.0703 15.5C28.125 15.5 28.8672 17.2969 29.3359 19.0156C31.25 19.3281 32.5 19.875 32.5 20.5C32.5 21.0859 31.4844 21.5938 29.9219 21.9062C29.9609 22.0625 30 22.2188 30 22.375C30 23.0391 29.8438 23.7031 29.5703 24.25H31.8359C32.3047 24.25 32.6172 24.7188 32.4219 25.1094L30.9766 28.7422ZM23.125 34.25L24.375 29.25L23.75 28L21.25 26.75L23.125 34.25ZM26.8359 34.25L28.75 26.75L26.25 28L25.625 29.25L26.8359 34.25ZM28.75 22.7656V22.1406C27.6172 22.2969 26.3672 22.375 25 22.375C23.5938 22.375 22.3438 22.2969 21.25 22.1406V22.7656C21.25 23.5859 21.9141 24.25 22.7344 24.25H23.2031C23.8672 24.25 24.4141 23.8594 24.6094 23.2734C24.6484 23.1172 24.8047 23 25 23C25.1562 23 25.3125 23.1172 25.3516 23.3125C25.5469 23.8594 26.0938 24.25 26.7578 24.25H27.2266C28.0469 24.25 28.75 23.5859 28.75 22.7656Z"></path>
</svg>
