<svg xmlns="http://www.w3.org/2000/svg" fill="none" viewBox="0 0 50 50" height="50" width="50">
<rect fill="#ECDEFF" rx="25" height="50" width="50"></rect>
<path fill="#0B305B" d="M12.8516 24.6406C13.0859 24.4062 13.3984 24.25 13.75 24.25H15V31.75H13.75C13.3984 31.75 13.0859 31.6328 12.8516 31.3984C12.6172 31.1641 12.5 30.8516 12.5 30.5V25.5C12.5 25.1875 12.6172 24.875 12.8516 24.6406ZM30.625 19.25C32.3438 19.25 33.75 20.6562 33.75 22.375V33C33.75 34.4062 32.6172 35.5 31.25 35.5H18.75C17.3438 35.5 16.25 34.4062 16.25 33V22.375C16.25 20.6562 17.6172 19.25 19.375 19.25H23.75V16.75C23.75 16.0859 24.2969 15.5 25 15.5C25.6641 15.5 26.25 16.0859 26.25 16.75V19.25H30.625ZM22.5 31.75V30.5H20V31.75H22.5ZM21.25 27.0625C22.1094 27.0625 22.8125 26.3984 22.8125 25.5C22.8125 24.6406 22.1094 23.9375 21.25 23.9375C20.3516 23.9375 19.6875 24.6406 19.6875 25.5C19.6875 26.3984 20.3516 27.0625 21.25 27.0625ZM26.25 31.75V30.5H23.75V31.75H26.25ZM30 31.75V30.5H27.5V31.75H30ZM28.75 27.0625C29.6094 27.0625 30.3125 26.3984 30.3125 25.5C30.3125 24.6406 29.6094 23.9375 28.75 23.9375C27.8516 23.9375 27.1875 24.6406 27.1875 25.5C27.1875 26.3984 27.8516 27.0625 28.75 27.0625ZM37.1094 24.6406C37.3438 24.875 37.5 25.1875 37.5 25.5V30.5C37.5 30.8516 37.3438 31.1641 37.1094 31.3984C36.875 31.6328 36.5625 31.75 36.25 31.75H35V24.25H36.25C36.5625 24.25 36.875 24.4062 37.1094 24.6406Z"></path>
</svg>
