<svg xmlns="http://www.w3.org/2000/svg" fill="none" viewBox="0 0 50 50" height="50" width="50">
<rect fill="#B9D9FF" rx="25" height="50" width="50"></rect>
<path fill="#0B305B" d="M14 13C12.3516 13 11 14.3516 11 16V32C11 33.6484 12.3516 35 14 35H17V39.8672L24.3047 35H34C35.6484 35 37 33.6484 37 32V16C37 14.3516 35.6484 13 34 13H14ZM14 15H34C34.5625 15 35 15.4375 35 16V32C35 32.5625 34.5625 33 34 33H23.6953L19 36.1328V33H14C13.4375 33 13 32.5625 13 32V16C13 15.4375 13.4375 15 14 15ZM27 17C24.7891 17 23 18.7891 23 21C23 21.5547 23.1094 22.0859 23.3125 22.5625L17.4219 28.4531C16.8594 29.0469 16.8594 29.9766 17.4375 30.5625C18.0234 31.1406 18.9531 31.1406 19.5469 30.5703L25.4375 24.6875C25.9141 24.8906 26.4453 25 27 25C29.2109 25 31 23.2109 31 21C31 20.4453 30.8828 19.9141 30.6797 19.4375L27.5156 22.6016L25.5156 20.6016L28.7109 17.3984C28.1875 17.1484 27.6172 17 27 17ZM18.4531 17.0469L17.0469 18.4531L18 20.5L19.5859 21L20.8203 22.2344L21.0781 21.9766C21.0234 21.6562 21 21.3281 21 21C21 20.5625 21.0469 20.1328 21.1406 19.7266L21 19.5859L20.5 18L18.4531 17.0469ZM28.8125 26.6875C28.2344 26.875 27.6328 27 27 27C26.6719 27 26.3438 26.9766 26.0312 26.9219L25.4141 27.5312L28.4609 30.5703C29.0469 31.1406 29.9844 31.1406 30.5625 30.5625C31.1406 29.9844 31.1406 29.0469 30.5703 28.4609L28.8125 26.6875Z"></path>
</svg>
