<svg xmlns="http://www.w3.org/2000/svg" fill="none" viewBox="0 0 208 233" height="233" width="208">
<g filter="url(#filter0_d_6711_20598)">
<ellipse style="mix-blend-mode:multiply" fill="url(#paint0_linear_6711_20598)" transform="matrix(0.864942 0.501871 -0.498131 0.867102 77.2051 0)" ry="73.4798" rx="73.2968" cy="73.4798" cx="73.2968"></ellipse>
<ellipse fill="url(#paint1_linear_6711_20598)" transform="matrix(0.864942 0.501871 -0.498131 0.867102 77.2051 0)" ry="73.4798" rx="73.2968" cy="73.4798" cx="73.2968"></ellipse>
<ellipse fill="white" ry="53.2851" rx="53.02" cy="96.9787" cx="103.838"></ellipse>
<path fill="#0B305B" d="M92.75 104.5C93.9688 104.5 95 105.531 95 106.75C95 108.062 93.9688 109 92.75 109H88.25C86.9375 109 86 108.062 86 106.75C86 105.531 86.9375 104.5 88.25 104.5H92.75ZM110.75 104.5C111.969 104.5 113 105.531 113 106.75C113 108.062 111.969 109 110.75 109H100.25C98.9375 109 98 108.062 98 106.75C98 105.531 98.9375 104.5 100.25 104.5H110.75ZM125 76C128.281 76 131 78.7188 131 82V112C131 115.375 128.281 118 125 118H83C79.625 118 77 115.375 77 112V82C77 78.7188 79.625 76 83 76H125ZM125 80.5H83C82.1562 80.5 81.5 81.25 81.5 82V85H126.5V82C126.5 81.25 125.75 80.5 125 80.5ZM126.5 94H81.5V112C81.5 112.844 82.1562 113.5 83 113.5H125C125.75 113.5 126.5 112.844 126.5 112V94Z"></path>
<path fill="url(#paint2_radial_6711_20598)" d="M92.75 104.5C93.9688 104.5 95 105.531 95 106.75C95 108.062 93.9688 109 92.75 109H88.25C86.9375 109 86 108.062 86 106.75C86 105.531 86.9375 104.5 88.25 104.5H92.75ZM110.75 104.5C111.969 104.5 113 105.531 113 106.75C113 108.062 111.969 109 110.75 109H100.25C98.9375 109 98 108.062 98 106.75C98 105.531 98.9375 104.5 100.25 104.5H110.75ZM125 76C128.281 76 131 78.7188 131 82V112C131 115.375 128.281 118 125 118H83C79.625 118 77 115.375 77 112V82C77 78.7188 79.625 76 83 76H125ZM125 80.5H83C82.1562 80.5 81.5 81.25 81.5 82V85H126.5V82C126.5 81.25 125.75 80.5 125 80.5ZM126.5 94H81.5V112C81.5 112.844 82.1562 113.5 83 113.5H125C125.75 113.5 126.5 112.844 126.5 112V94Z"></path>
</g>
<defs>
<filter color-interpolation-filters="sRGB" filterUnits="userSpaceOnUse" height="261" width="260" y="-2" x="-26" id="filter0_d_6711_20598">
<feFlood result="BackgroundImageFix" flood-opacity="0"></feFlood>
<feColorMatrix result="hardAlpha" values="0 0 0 0 0 0 0 0 0 0 0 0 0 0 0 0 0 0 127 0" type="matrix" in="SourceAlpha"></feColorMatrix>
<feOffset dy="28"></feOffset>
<feGaussianBlur stdDeviation="15"></feGaussianBlur>
<feComposite operator="out" in2="hardAlpha"></feComposite>
<feColorMatrix values="0 0 0 0 0.0862745 0 0 0 0 0.262745 0 0 0 0 0.466667 0 0 0 0.22 0" type="matrix"></feColorMatrix>
<feBlend result="effect1_dropShadow_6711_20598" in2="BackgroundImageFix" mode="multiply"></feBlend>
<feBlend result="shape" in2="effect1_dropShadow_6711_20598" in="SourceGraphic" mode="normal"></feBlend>
</filter>
<linearGradient gradientUnits="userSpaceOnUse" y2="243.853" x2="73.2967" y1="0" x1="73.2967" id="paint0_linear_6711_20598">
<stop stop-color="#F0FAFF"></stop>
<stop stop-opacity="0" stop-color="#F0FAFF" offset="1"></stop>
</linearGradient>
<linearGradient gradientUnits="userSpaceOnUse" y2="88.2248" x2="194.267" y1="-29.0107" x1="125.839" id="paint1_linear_6711_20598">
<stop stop-color="#00C874"></stop>
<stop stop-opacity="0" stop-color="#1F80F0" offset="1"></stop>
</linearGradient>
<radialGradient gradientTransform="translate(79.5 129) rotate(-48.7806) scale(80.4317 127.278)" gradientUnits="userSpaceOnUse" r="1" cy="0" cx="0" id="paint2_radial_6711_20598">
<stop stop-color="#00C874"></stop>
<stop stop-color="#1F80F0" offset="0.520833"></stop>
<stop stop-color="#014AB8" offset="1"></stop>
</radialGradient>
</defs>
</svg>
