<svg xmlns="http://www.w3.org/2000/svg" fill="none" viewBox="0 0 50 50" height="50" width="50">
<rect fill="#D7F3D3" rx="25" height="50" width="50"></rect>
<path fill="#0B305B" d="M33.75 16.75C35.1172 16.75 36.25 17.8828 36.25 19.25V20.5H13.75V19.25C13.75 17.8828 14.8438 16.75 16.25 16.75H33.75ZM36.25 31.75C36.25 33.1562 35.1172 34.25 33.75 34.25H16.25C14.8438 34.25 13.75 33.1562 13.75 31.75V24.25H36.25V31.75ZM18.125 29.25C17.7734 29.25 17.5 29.5625 17.5 29.875C17.5 30.2266 17.7734 30.5 18.125 30.5H20.625C20.9375 30.5 21.25 30.2266 21.25 29.875C21.25 29.5625 20.9375 29.25 20.625 29.25H18.125ZM23.125 30.5H28.125C28.4375 30.5 28.75 30.2266 28.75 29.875C28.75 29.5625 28.4375 29.25 28.125 29.25H23.125C22.7734 29.25 22.5 29.5625 22.5 29.875C22.5 30.2266 22.7734 30.5 23.125 30.5Z"></path>
</svg>
