<svg xmlns="http://www.w3.org/2000/svg" fill="none" viewBox="0 0 50 50" height="50" width="50">
<rect fill="#B9D9FF" rx="25" height="50" width="50"></rect>
<path fill="#0B305B" d="M24 11C17.2656 11 13 16.0469 13 22C13 25.0391 14.1406 27.0312 15.1719 28.5781C16.1953 30.1172 17 31.1641 17 32.75V37H19V32.75C19 30.4688 17.8047 28.9375 16.8281 27.4688C15.8594 26 15 24.5625 15 22C15 17.9219 17.1406 14.5938 21 13.4531V19.5625C19.8125 20.2578 19 21.5312 19 23C19 25.1953 20.8047 27 23 27C23.7344 27 24.4219 26.7812 25.0156 26.4297L27.0703 28.4844C27.0234 28.6562 27 28.8281 27 29C27 30.1016 27.8984 31 29 31C30.1016 31 31 30.1016 31 29C31 27.8984 30.1016 27 29 27C28.8281 27 28.6563 27.0234 28.4844 27.0703L26.4297 25.0156C26.7812 24.4219 27 23.7344 27 23C27 20.8047 25.1953 19 23 19V13.0859C23.3359 13.0547 23.6484 13 24 13C26.9922 13 28.9375 13.9297 30.2812 15.3125C31.6328 16.6953 32.3828 18.5938 32.6719 20.5781C32.7188 20.9219 32.8281 21.2578 33 21.5781L34.9766 25.125C35.0391 25.2266 35.0078 25.3047 34.8984 25.3516L33 26.0547V30C33 31.6641 32.3125 32.2266 31.5547 32.6016C30.7969 32.9844 30 33 30 33H29V37H31V34.75C31.4688 34.6953 31.7109 34.7578 32.4453 34.3984C33.6875 33.7734 35 32.3359 35 30V27.4453L35.6562 27.2031L35.6719 27.1953C36.8438 26.7031 37.3438 25.2656 36.7266 24.1562L34.75 20.6094C34.7031 20.5234 34.6641 20.4219 34.6484 20.2969C34.3125 18 33.4453 15.6797 31.7188 13.9141C29.9922 12.1484 27.4219 11 24 11ZM23 21C24.1172 21 25 21.8828 25 23C25 24.1172 24.1172 25 23 25C21.8828 25 21 24.1172 21 23C21 21.8828 21.8828 21 23 21Z"></path>
</svg>
