<svg xmlns="http://www.w3.org/2000/svg" fill="none" viewBox="0 0 228 39" height="39" width="228">
<path fill="url(#paint0_linear_6883_4151)" d="M29.2008 24.5772H20.8008L19.1448 28.4652H15.9288L23.4888 11.6652H26.5608L34.1448 28.4652H30.8808L29.2008 24.5772ZM28.1688 22.1292L25.0008 14.7852L21.8568 22.1292H28.1688ZM42.7854 15.5052C44.4014 15.5052 45.6974 15.9772 46.6734 16.9212C47.6494 17.8652 48.1374 19.2652 48.1374 21.1212V28.4652H45.1374V21.5052C45.1374 20.3852 44.8734 19.5452 44.3454 18.9852C43.8174 18.4092 43.0654 18.1212 42.0894 18.1212C40.9854 18.1212 40.1134 18.4572 39.4734 19.1292C38.8334 19.7852 38.5134 20.7372 38.5134 21.9852V28.4652H35.5134V15.6492H38.3694V17.3052C38.8654 16.7132 39.4894 16.2652 40.2414 15.9612C40.9934 15.6572 41.8414 15.5052 42.7854 15.5052ZM63.2287 15.6492L57.2287 29.4972C56.6687 30.8892 55.9887 31.8652 55.1887 32.4252C54.3887 33.0012 53.4207 33.2892 52.2847 33.2892C51.6447 33.2892 51.0127 33.1852 50.3887 32.9772C49.7647 32.7692 49.2527 32.4812 48.8527 32.1132L50.0527 29.9052C50.3407 30.1772 50.6767 30.3932 51.0607 30.5532C51.4607 30.7132 51.8607 30.7932 52.2607 30.7932C52.7887 30.7932 53.2207 30.6572 53.5567 30.3852C53.9087 30.1132 54.2287 29.6572 54.5167 29.0172L54.7327 28.5132L49.1407 15.6492H52.2607L56.2927 25.1292L60.3487 15.6492H63.2287ZM71.8237 11.6652C73.2797 11.6652 74.5437 11.9052 75.6157 12.3852C76.7037 12.8652 77.5357 13.5532 78.1117 14.4492C78.6877 15.3452 78.9757 16.4092 78.9757 17.6412C78.9757 18.8572 78.6877 19.9212 78.1117 20.8332C77.5357 21.7292 76.7037 22.4172 75.6157 22.8972C74.5437 23.3772 73.2797 23.6172 71.8237 23.6172H68.0317V28.4652H64.9117V11.6652H71.8237ZM71.6797 20.9772C73.0397 20.9772 74.0717 20.6892 74.7757 20.1132C75.4797 19.5372 75.8317 18.7132 75.8317 17.6412C75.8317 16.5692 75.4797 15.7452 74.7757 15.1692C74.0717 14.5932 73.0397 14.3052 71.6797 14.3052H68.0317V20.9772H71.6797ZM86.1022 15.5052C87.9902 15.5052 89.4302 15.9612 90.4222 16.8732C91.4302 17.7692 91.9342 19.1292 91.9342 20.9532V28.4652H89.1022V26.9052C88.7342 27.4652 88.2062 27.8972 87.5182 28.2012C86.8462 28.4892 86.0302 28.6332 85.0702 28.6332C84.1102 28.6332 83.2702 28.4732 82.5502 28.1532C81.8302 27.8172 81.2702 27.3612 80.8702 26.7852C80.4862 26.1932 80.2942 25.5292 80.2942 24.7932C80.2942 23.6412 80.7182 22.7212 81.5662 22.0332C82.4302 21.3292 83.7822 20.9772 85.6222 20.9772H88.9342V20.7852C88.9342 19.8892 88.6622 19.2012 88.1182 18.7212C87.5902 18.2412 86.7982 18.0012 85.7422 18.0012C85.0222 18.0012 84.3102 18.1132 83.6062 18.3372C82.9182 18.5612 82.3342 18.8732 81.8542 19.2732L80.6782 17.0892C81.3502 16.5772 82.1582 16.1852 83.1022 15.9132C84.0462 15.6412 85.0462 15.5052 86.1022 15.5052ZM85.6942 26.4492C86.4462 26.4492 87.1102 26.2812 87.6862 25.9452C88.2782 25.5932 88.6942 25.0972 88.9342 24.4572V22.9692H85.8382C84.1102 22.9692 83.2462 23.5372 83.2462 24.6732C83.2462 25.2172 83.4622 25.6492 83.8942 25.9692C84.3262 26.2892 84.9262 26.4492 85.6942 26.4492ZM100.2 15.5052C102.088 15.5052 103.528 15.9612 104.52 16.8732C105.528 17.7692 106.032 19.1292 106.032 20.9532V28.4652H103.2V26.9052C102.832 27.4652 102.304 27.8972 101.616 28.2012C100.944 28.4892 100.128 28.6332 99.1683 28.6332C98.2083 28.6332 97.3683 28.4732 96.6483 28.1532C95.9283 27.8172 95.3683 27.3612 94.9683 26.7852C94.5843 26.1932 94.3923 25.5292 94.3923 24.7932C94.3923 23.6412 94.8163 22.7212 95.6643 22.0332C96.5283 21.3292 97.8803 20.9772 99.7203 20.9772H103.032V20.7852C103.032 19.8892 102.76 19.2012 102.216 18.7212C101.688 18.2412 100.896 18.0012 99.8403 18.0012C99.1203 18.0012 98.4083 18.1132 97.7043 18.3372C97.0163 18.5612 96.4323 18.8732 95.9523 19.2732L94.7763 17.0892C95.4483 16.5772 96.2563 16.1852 97.2003 15.9132C98.1443 15.6412 99.1443 15.5052 100.2 15.5052ZM99.7923 26.4492C100.544 26.4492 101.208 26.2812 101.784 25.9452C102.376 25.5932 102.792 25.0972 103.032 24.4572V22.9692H99.9363C98.2083 22.9692 97.3443 23.5372 97.3443 24.6732C97.3443 25.2172 97.5603 25.6492 97.9923 25.9692C98.4243 26.2892 99.0243 26.4492 99.7923 26.4492ZM114.898 28.7052C113.602 28.7052 112.346 28.5212 111.13 28.1532C109.93 27.7852 108.978 27.2972 108.274 26.6892L109.354 24.2652C110.042 24.8092 110.882 25.2572 111.874 25.6092C112.882 25.9452 113.89 26.1132 114.898 26.1132C116.146 26.1132 117.074 25.9132 117.682 25.5132C118.306 25.1132 118.618 24.5852 118.618 23.9292C118.618 23.4492 118.442 23.0572 118.09 22.7532C117.754 22.4332 117.322 22.1852 116.794 22.0092C116.266 21.8332 115.546 21.6332 114.634 21.4092C113.354 21.1052 112.314 20.8012 111.514 20.4972C110.73 20.1932 110.05 19.7212 109.474 19.0812C108.914 18.4252 108.634 17.5452 108.634 16.4412C108.634 15.5132 108.882 14.6732 109.378 13.9212C109.89 13.1532 110.65 12.5452 111.658 12.0972C112.682 11.6492 113.93 11.4252 115.402 11.4252C116.426 11.4252 117.434 11.5532 118.426 11.8092C119.418 12.0652 120.274 12.4332 120.994 12.9132L120.01 15.3372C119.274 14.9052 118.506 14.5772 117.706 14.3532C116.906 14.1292 116.13 14.0172 115.378 14.0172C114.146 14.0172 113.226 14.2252 112.618 14.6412C112.026 15.0572 111.73 15.6092 111.73 16.2972C111.73 16.7772 111.898 17.1692 112.234 17.4732C112.586 17.7772 113.026 18.0172 113.554 18.1932C114.082 18.3692 114.802 18.5692 115.714 18.7932C116.962 19.0812 117.986 19.3852 118.786 19.7052C119.586 20.0092 120.266 20.4812 120.826 21.1212C121.402 21.7612 121.69 22.6252 121.69 23.7132C121.69 24.6412 121.434 25.4812 120.922 26.2332C120.426 26.9852 119.666 27.5852 118.642 28.0332C117.618 28.4812 116.37 28.7052 114.898 28.7052Z"></path>
<g clip-path="url(#clip0_6883_4151)">
<path fill="#014AB8" d="M173 15.7888H176.26V24.0925H177.804V15.7888H181.202V14.6156H173V15.7888Z"></path>
<path fill="#014AB8" d="M206.405 14.6156V18.737H201.799V14.6156H200.254V24.0925H201.799V19.9106H206.405V24.0925H207.934V14.6156H206.405Z"></path>
<path fill="#014AB8" d="M181.971 18.6364V20.0713C181.971 22.2921 183.798 24.0925 186.051 24.0925H189.535V22.8513H186.086C184.755 22.8513 183.676 21.7881 183.676 20.4768V19.984H189.535V18.7246H183.676V18.2317C183.676 16.9204 184.755 15.8572 186.086 15.8572H189.535V14.6156H186.051C183.798 14.6156 181.971 16.416 181.971 18.6368V18.6364Z"></path>
<path fill="#014AB8" d="M191.01 18.6364V20.0713C191.01 22.2921 192.837 24.0925 195.09 24.0925H198.574V22.8513H195.125C193.794 22.8513 192.715 21.7881 192.715 20.4768V18.2313C192.715 16.92 193.794 15.8568 195.125 15.8568H198.574V14.6156H195.09C192.837 14.6156 191.01 16.416 191.01 18.6368V18.6364Z"></path>
<path fill="#014AB8" d="M157.974 14.7919L164.956 21.0504C165 21.0891 165.025 21.1444 165.025 21.2021V23.9639C165.025 24.1419 164.81 24.2351 164.677 24.1156L157.695 17.8567C157.652 17.8179 157.627 17.7627 157.627 17.705V14.9436C157.627 14.7656 157.841 14.6724 157.975 14.7919H157.974Z"></path>
<path fill="#014AB8" d="M157.627 19.7528V24.222C157.627 24.3349 157.72 24.4268 157.835 24.4268H162.692L157.627 19.7528Z"></path>
<path fill="#014AB8" d="M156.377 17.5943V14.6824C156.377 14.5707 156.286 14.4805 156.172 14.4805H152.512C152.435 14.4805 152.365 14.5229 152.33 14.5905L147.409 24.1037C147.34 24.2381 147.439 24.3971 147.592 24.3971H150.495C150.573 24.3971 150.644 24.3539 150.678 24.2854L151.765 22.1364C151.799 22.068 151.87 22.0247 151.948 22.0247H156.172C156.285 22.0247 156.377 21.9344 156.377 21.8228V19.9547C156.377 19.8435 156.285 19.7532 156.172 19.7528L153.303 19.7462C153.151 19.7462 153.052 19.5884 153.12 19.4545L153.902 17.9083C153.936 17.8399 154.007 17.7966 154.085 17.7966H156.172C156.285 17.7966 156.377 17.7063 156.377 17.5947L156.377 17.5943Z"></path>
<path fill="#014AB8" d="M165.026 19.1545V14.6849C165.026 14.572 164.934 14.4805 164.819 14.4805H159.961L165.026 19.1545Z"></path>
<path fill="#014AB8" d="M168.774 14.5744L166.259 19.1354C166.247 19.1577 166.24 19.1824 166.24 19.2075V24.2607C166.24 24.3443 166.309 24.4119 166.394 24.4119H169.451C169.536 24.4119 169.605 24.3443 169.605 24.2607V19.2075C169.605 19.1824 169.611 19.1577 169.624 19.1354L172.06 14.7186C172.116 14.618 172.042 14.4952 171.926 14.4952H168.909C168.853 14.4952 168.802 14.5257 168.775 14.5744H168.774Z"></path>
</g>
<path fill="#014AB8" d="M137.94 19.693C138.178 19.7686 138.365 19.8959 138.501 20.0749C138.636 20.25 138.704 20.4668 138.704 20.7254C138.704 21.0914 138.56 21.3739 138.274 21.5728C137.991 21.7678 137.578 21.8652 137.033 21.8652H134.872V17.6878H136.913C137.422 17.6878 137.812 17.7853 138.083 17.9802C138.357 18.1752 138.495 18.4398 138.495 18.7739C138.495 18.9768 138.445 19.1579 138.346 19.317C138.25 19.4761 138.115 19.6015 137.94 19.693ZM135.833 18.4159V19.4006H136.794C137.033 19.4006 137.214 19.3588 137.337 19.2752C137.46 19.1917 137.522 19.0684 137.522 18.9052C137.522 18.7421 137.46 18.6208 137.337 18.5412C137.214 18.4577 137.033 18.4159 136.794 18.4159H135.833ZM136.961 21.1372C137.216 21.1372 137.407 21.0954 137.534 21.0118C137.665 20.9283 137.731 20.799 137.731 20.6239C137.731 20.2778 137.474 20.1048 136.961 20.1048H135.833V21.1372H136.961ZM141.353 20.3852V21.8652H140.386V20.3733L138.769 17.6878H139.796L140.912 19.5438L142.028 17.6878H142.976L141.353 20.3852Z"></path>
<rect stroke-width="0.314672" stroke="#F8FCFF" rx="18.8774" height="37.7548" width="226.805" y="0.587756" x="0.157336"></rect>
<rect stroke-width="0.314672" stroke="url(#paint1_linear_6883_4151)" rx="18.8774" height="37.7548" width="226.805" y="0.587756" x="0.157336"></rect>
<defs>
<linearGradient gradientUnits="userSpaceOnUse" y2="-1.33162" x2="29.096" y1="33.4862" x1="11.3914" id="paint0_linear_6883_4151">
<stop stop-color="#40FEFF"></stop>
<stop stop-color="#014AB8" offset="1"></stop>
</linearGradient>
<linearGradient gradientUnits="userSpaceOnUse" y2="-15.3365" x2="7.65854" y1="38.5285" x1="-9.88596" id="paint1_linear_6883_4151">
<stop stop-color="#40FEFF"></stop>
<stop stop-color="#014AB8" offset="1"></stop>
</linearGradient>
<clipPath id="clip0_6883_4151">
<rect transform="translate(147.387 14.4805)" fill="white" height="9.94633" width="60.5472"></rect>
</clipPath>
</defs>
</svg>
