<svg xmlns="http://www.w3.org/2000/svg" fill="none" viewBox="0 0 50 50" height="50" width="50">
<rect fill="#E9F3FF" rx="25" height="50" width="50"></rect>
<path fill="#0B305B" d="M23.7109 20.6172C22.0703 20.8906 20.5859 21.6328 19.4531 22.7266L15.0781 16.5156C14.8047 16.0859 15.1172 15.5 15.625 15.5H20.3125C20.5078 15.5 20.7422 15.6172 20.8203 15.8125L23.7109 20.6172ZM25 21.75C28.7891 21.75 31.875 24.8359 31.875 28.625C31.875 32.4531 28.7891 35.5 25 35.5C21.1719 35.5 18.125 32.4531 18.125 28.625C18.125 24.8359 21.1719 21.75 25 21.75ZM28.5938 27.9219C28.8672 27.6484 28.7109 27.1797 28.3594 27.1406L26.2891 26.8281L25.3906 24.9922C25.3125 24.8359 25.1562 24.7578 24.9609 24.7578C24.8047 24.7578 24.6484 24.8359 24.5703 24.9922L23.6719 26.8281L21.6016 27.1406C21.25 27.1797 21.0938 27.6484 21.3672 27.9219L22.8516 29.3672L22.5 31.3984C22.4219 31.75 22.8125 32.0234 23.1641 31.8672L24.9609 30.8906L26.7969 31.8672C27.1484 32.0625 27.5391 31.75 27.4609 31.3984L27.1094 29.3672L28.5938 27.9219ZM34.3359 15.5C34.8438 15.5 35.1562 16.0859 34.8828 16.4766L30.5078 22.6875C29.375 21.5938 27.8906 20.8516 26.25 20.5781L29.1016 15.8125C29.2188 15.6172 29.4531 15.5 29.6484 15.5H34.3359Z"></path>
</svg>
