<svg xmlns="http://www.w3.org/2000/svg" fill="none" viewBox="0 0 50 50" height="50" width="50">
<rect fill="#ECDEFF" rx="25" height="50" width="50"></rect>
<path fill="#0B305B" d="M19.375 23V21.125C19.375 18.0391 21.875 15.5 25 15.5C28.0859 15.5 30.625 18.0391 30.625 21.125V23H31.25C32.6172 23 33.75 24.1328 33.75 25.5V33C33.75 34.4062 32.6172 35.5 31.25 35.5H18.75C17.3438 35.5 16.25 34.4062 16.25 33V25.5C16.25 24.1328 17.3438 23 18.75 23H19.375ZM21.875 23H28.125V21.125C28.125 19.4062 26.7188 18 25 18C23.2422 18 21.875 19.4062 21.875 21.125V23Z"></path>
</svg>
