<svg xmlns="http://www.w3.org/2000/svg" fill="none" viewBox="0 0 20 19" height="19" width="20">
<path fill="#0B305B" d="M2.5 15.125C2.5 15.4766 2.77344 15.75 3.125 15.75H18.75C19.4141 15.75 20 16.3359 20 17C20 17.7031 19.4141 18.25 18.75 18.25H3.125C1.36719 18.25 0 16.8828 0 15.125V2C0 1.33594 0.546875 0.75 1.25 0.75C1.91406 0.75 2.5 1.33594 2.5 2V15.125ZM13.3594 10.3984C12.8906 10.9062 12.0703 10.9062 11.6016 10.3984L9.375 8.17188L5.85938 11.6484C5.39062 12.1562 4.57031 12.1562 4.10156 11.6484C3.59375 11.1797 3.59375 10.3594 4.10156 9.89062L8.47656 5.51562C8.94531 5.00781 9.76562 5.00781 10.2344 5.51562L12.5 7.74219L16.6016 3.64062C17.0703 3.13281 17.8906 3.13281 18.3594 3.64062C18.8672 4.10938 18.8672 4.92969 18.3594 5.39844L13.3594 10.3984Z"></path>
</svg>
