<svg xmlns="http://www.w3.org/2000/svg" fill="none" viewBox="0 0 208 233" height="233" width="208">
<g filter="url(#filter0_d_6711_20534)">
<ellipse style="mix-blend-mode:multiply" fill="url(#paint0_linear_6711_20534)" transform="matrix(0.864942 0.501871 -0.498131 0.867102 77.2031 0)" ry="73.4798" rx="73.2968" cy="73.4798" cx="73.2968"></ellipse>
<ellipse fill="url(#paint1_linear_6711_20534)" transform="matrix(0.864942 0.501871 -0.498131 0.867102 77.2031 0)" ry="73.4798" rx="73.2968" cy="73.4798" cx="73.2968"></ellipse>
<ellipse fill="white" ry="53.2851" rx="53.02" cy="96.9787" cx="103.836"></ellipse>
<path fill="#0B305B" d="M128 80.5C128 82.2812 126.594 83.7812 124.344 85C121.625 86.5938 117.594 87.625 112.906 87.9062C112.531 87.8125 112.156 87.625 111.875 87.4375C108.125 85.9375 103.25 85 98 85C97.1562 85 96.4062 85.0938 95.6562 85.0938L95.5625 85C93.3125 83.7812 92 82.2812 92 80.5C92 76.375 99.9688 73 110 73C119.938 73 128 76.375 128 80.5ZM95 88.1875C95.9375 88.0938 96.9688 88 98 88C103.812 88 108.969 89.2188 112.25 91C114.594 92.2188 116 93.8125 116 95.5C116 95.875 115.906 96.25 115.719 96.625C115.344 97.8438 114.125 98.9688 112.438 100H112.344C109.062 101.875 103.812 103 98 103C92.375 103 87.4062 101.969 84.0312 100.281C83.8438 100.188 83.75 100.094 83.5625 100C81.3125 98.7812 80 97.1875 80 95.5C80 92.3125 84.9688 89.5 92 88.4688C92.9375 88.2812 93.9688 88.1875 95 88.1875ZM116.656 90.5312C119.375 90.1562 121.812 89.5 123.875 88.6562C125.375 88 126.781 87.1562 128 86.2188V89.5C128 91.375 126.406 93.0625 123.875 94.2812C122.469 95.0312 120.781 95.5938 118.906 96.0625C118.906 95.875 119 95.6875 119 95.5C119 93.5312 117.969 91.8438 116.656 90.5312ZM116 104.5C116 106.188 114.594 107.781 112.344 109C112.156 109.094 112.062 109.188 111.875 109.281C108.5 110.969 103.531 112 98 112C92.0938 112 86.8438 110.875 83.5625 109C81.3125 107.781 80 106.188 80 104.5V101.219C81.125 102.156 82.5312 103 84.0312 103.656C87.7812 105.156 92.6562 106 98 106C103.25 106 108.125 105.156 111.875 103.656C112.531 103.281 113.281 103 113.938 102.625C114.5 102.25 115.062 101.875 115.531 101.5C115.719 101.406 115.812 101.312 116 101.219V104.5ZM119 99.1562C120.688 98.6875 122.375 98.2188 123.875 97.6562C125.375 97 126.781 96.1562 128 95.2188V98.5C128 99.5312 127.531 100.469 126.594 101.406C125 103 122.375 104.219 118.906 105.062C118.906 104.875 119 104.688 119 104.5V99.1562ZM98 115C103.25 115 108.125 114.156 111.875 112.656C113.375 112 114.781 111.156 116 110.219V113.5C116 117.719 107.938 121 98 121C87.9688 121 80 117.719 80 113.5V110.219C81.125 111.156 82.5312 112 84.0312 112.656C87.7812 114.156 92.6562 115 98 115Z"></path>
<path fill="url(#paint2_radial_6711_20534)" d="M128 80.5C128 82.2812 126.594 83.7812 124.344 85C121.625 86.5938 117.594 87.625 112.906 87.9062C112.531 87.8125 112.156 87.625 111.875 87.4375C108.125 85.9375 103.25 85 98 85C97.1562 85 96.4062 85.0938 95.6562 85.0938L95.5625 85C93.3125 83.7812 92 82.2812 92 80.5C92 76.375 99.9688 73 110 73C119.938 73 128 76.375 128 80.5ZM95 88.1875C95.9375 88.0938 96.9688 88 98 88C103.812 88 108.969 89.2188 112.25 91C114.594 92.2188 116 93.8125 116 95.5C116 95.875 115.906 96.25 115.719 96.625C115.344 97.8438 114.125 98.9688 112.438 100H112.344C109.062 101.875 103.812 103 98 103C92.375 103 87.4062 101.969 84.0312 100.281C83.8438 100.188 83.75 100.094 83.5625 100C81.3125 98.7812 80 97.1875 80 95.5C80 92.3125 84.9688 89.5 92 88.4688C92.9375 88.2812 93.9688 88.1875 95 88.1875ZM116.656 90.5312C119.375 90.1562 121.812 89.5 123.875 88.6562C125.375 88 126.781 87.1562 128 86.2188V89.5C128 91.375 126.406 93.0625 123.875 94.2812C122.469 95.0312 120.781 95.5938 118.906 96.0625C118.906 95.875 119 95.6875 119 95.5C119 93.5312 117.969 91.8438 116.656 90.5312ZM116 104.5C116 106.188 114.594 107.781 112.344 109C112.156 109.094 112.062 109.188 111.875 109.281C108.5 110.969 103.531 112 98 112C92.0938 112 86.8438 110.875 83.5625 109C81.3125 107.781 80 106.188 80 104.5V101.219C81.125 102.156 82.5312 103 84.0312 103.656C87.7812 105.156 92.6562 106 98 106C103.25 106 108.125 105.156 111.875 103.656C112.531 103.281 113.281 103 113.938 102.625C114.5 102.25 115.062 101.875 115.531 101.5C115.719 101.406 115.812 101.312 116 101.219V104.5ZM119 99.1562C120.688 98.6875 122.375 98.2188 123.875 97.6562C125.375 97 126.781 96.1562 128 95.2188V98.5C128 99.5312 127.531 100.469 126.594 101.406C125 103 122.375 104.219 118.906 105.062C118.906 104.875 119 104.688 119 104.5V99.1562ZM98 115C103.25 115 108.125 114.156 111.875 112.656C113.375 112 114.781 111.156 116 110.219V113.5C116 117.719 107.938 121 98 121C87.9688 121 80 117.719 80 113.5V110.219C81.125 111.156 82.5312 112 84.0312 112.656C87.7812 114.156 92.6562 115 98 115Z"></path>
</g>
<defs>
<filter color-interpolation-filters="sRGB" filterUnits="userSpaceOnUse" height="261" width="260" y="-2" x="-26" id="filter0_d_6711_20534">
<feFlood result="BackgroundImageFix" flood-opacity="0"></feFlood>
<feColorMatrix result="hardAlpha" values="0 0 0 0 0 0 0 0 0 0 0 0 0 0 0 0 0 0 127 0" type="matrix" in="SourceAlpha"></feColorMatrix>
<feOffset dy="28"></feOffset>
<feGaussianBlur stdDeviation="15"></feGaussianBlur>
<feComposite operator="out" in2="hardAlpha"></feComposite>
<feColorMatrix values="0 0 0 0 0.0862745 0 0 0 0 0.262745 0 0 0 0 0.466667 0 0 0 0.22 0" type="matrix"></feColorMatrix>
<feBlend result="effect1_dropShadow_6711_20534" in2="BackgroundImageFix" mode="multiply"></feBlend>
<feBlend result="shape" in2="effect1_dropShadow_6711_20534" in="SourceGraphic" mode="normal"></feBlend>
</filter>
<linearGradient gradientUnits="userSpaceOnUse" y2="243.853" x2="73.2967" y1="0" x1="73.2967" id="paint0_linear_6711_20534">
<stop stop-color="#F0FAFF"></stop>
<stop stop-opacity="0" stop-color="#F0FAFF" offset="1"></stop>
</linearGradient>
<linearGradient gradientUnits="userSpaceOnUse" y2="88.2248" x2="194.267" y1="-29.0107" x1="125.839" id="paint1_linear_6711_20534">
<stop stop-color="#00E9EA"></stop>
<stop stop-opacity="0" stop-color="#1F80F0" offset="1"></stop>
</linearGradient>
<radialGradient gradientTransform="translate(79.5 129) rotate(-48.7806) scale(80.4317 127.278)" gradientUnits="userSpaceOnUse" r="1" cy="0" cx="0" id="paint2_radial_6711_20534">
<stop stop-color="#00E9EA"></stop>
<stop stop-color="#1F80F0" offset="0.520833"></stop>
<stop stop-color="#014AB8" offset="1"></stop>
</radialGradient>
</defs>
</svg>
