<svg xmlns="http://www.w3.org/2000/svg" fill="none" viewBox="0 0 50 51" height="51" width="50">
<rect fill="#E9F3FF" rx="25" height="50" width="50" y="0.5"></rect>
<path fill="#0B305B" d="M28.8672 18.0312C31.7188 20.6484 33.75 24.9453 33.75 27.0156C33.75 31.9766 29.8047 36 25 36C20.1562 36 16.25 31.9766 16.25 27.0156C16.25 24.2031 18.9453 19.5938 22.8125 16C24.2969 17.4062 25.625 18.8906 26.6797 20.375C27.3438 19.5547 28.0469 18.7734 28.8672 18.0312ZM28.125 31.3125C30.0391 29.9844 30.4688 27.3672 29.4141 25.3359C29.2969 25.1016 29.1406 24.8281 28.9844 24.5547L26.6797 27.1719C26.6797 27.1719 23.0859 22.5625 22.8125 22.25C20.9375 24.5547 20 25.8828 20 27.3672C20 30.4141 22.2656 32.25 25.0781 32.25C26.2109 32.25 27.2656 31.8984 28.125 31.3125Z"></path>
</svg>
