<svg xmlns="http://www.w3.org/2000/svg" fill="none" viewBox="0 0 50 50" height="50" width="50">
<rect fill="#D7F8F9" rx="25" height="50" width="50"></rect>
<path fill="#0B305B" d="M35 26.75C35 28.1562 34.1406 29.25 33.125 29.25C31.8359 29.25 31.875 28 30.9375 28C30.3906 28 30 28.4297 30 28.9766V34.25C30 34.9531 29.4141 35.5 28.75 35.5H25.9375C25.3906 35.5 25 35.1094 25 34.5625C25 33.625 26.25 33.6641 26.25 32.375C26.25 31.3594 25.1172 30.5 23.75 30.5C22.3438 30.5 21.25 31.3594 21.25 32.375C21.25 33.6641 22.5 33.625 22.5 34.5625C22.5 35.1094 22.0703 35.5 21.5234 35.5H16.25C15.5469 35.5 15 34.9531 15 34.25V28.9766C15 28.4297 15.3906 28 15.9375 28C16.875 28 16.8359 29.25 18.125 29.25C19.1406 29.25 20 28.1562 20 26.75C20 25.3828 19.1406 24.25 18.125 24.25C16.8359 24.25 16.875 25.5 15.9375 25.5C15.3906 25.5 15 25.1094 15 24.5625V21.75C15 21.0859 15.5469 20.5391 16.25 20.5391H21.5234C22.0703 20.5 22.5 20.1094 22.5 19.5625C22.5 18.625 21.25 18.6641 21.25 17.375C21.25 16.3594 22.3438 15.5391 23.75 15.5391C25.1172 15.5391 26.25 16.3984 26.25 17.375C26.25 18.6641 25 18.625 25 19.5625C25 20.1094 25.3906 20.5 25.9375 20.5H28.75C29.4141 20.5 30 21.0859 30 21.75V24.5234C30 25.0703 30.3906 25.5 30.9375 25.5C31.875 25.5 31.8359 24.25 33.125 24.25C34.1406 24.25 35 25.3828 35 26.75Z"></path>
</svg>
