<svg xmlns="http://www.w3.org/2000/svg" fill="none" viewBox="0 0 234 43" height="43" width="234">
<rect fill="#F8FCFF" rx="21.4783" height="42.9565" width="233.837"></rect>
<rect fill="url(#paint0_linear_5950_27182)" rx="21.4783" height="42.9565" width="233.837"></rect>
<path fill="white" d="M36.9889 26.5903H28.5889L26.9329 30.4783H23.7169L31.2769 13.6783H34.3489L41.9329 30.4783H38.6689L36.9889 26.5903ZM35.9569 24.1423L32.7889 16.7983L29.6449 24.1423H35.9569ZM50.5735 17.5183C52.1895 17.5183 53.4855 17.9903 54.4615 18.9343C55.4375 19.8783 55.9255 21.2783 55.9255 23.1343V30.4783H52.9255V23.5183C52.9255 22.3983 52.6615 21.5583 52.1335 20.9983C51.6055 20.4223 50.8535 20.1343 49.8775 20.1343C48.7735 20.1343 47.9015 20.4703 47.2615 21.1423C46.6215 21.7983 46.3015 22.7503 46.3015 23.9983V30.4783H43.3015V17.6623H46.1575V19.3183C46.6535 18.7263 47.2775 18.2783 48.0295 17.9743C48.7815 17.6703 49.6295 17.5183 50.5735 17.5183ZM71.0168 17.6623L65.0168 31.5103C64.4568 32.9023 63.7768 33.8783 62.9768 34.4383C62.1768 35.0143 61.2088 35.3023 60.0728 35.3023C59.4328 35.3023 58.8008 35.1983 58.1768 34.9903C57.5528 34.7823 57.0408 34.4943 56.6408 34.1263L57.8408 31.9183C58.1288 32.1903 58.4648 32.4063 58.8488 32.5663C59.2488 32.7263 59.6488 32.8063 60.0488 32.8063C60.5768 32.8063 61.0088 32.6703 61.3448 32.3983C61.6968 32.1263 62.0168 31.6703 62.3048 31.0303L62.5208 30.5263L56.9288 17.6623H60.0488L64.0808 27.1423L68.1368 17.6623H71.0168ZM79.6118 13.6783C81.0678 13.6783 82.3318 13.9183 83.4038 14.3983C84.4918 14.8783 85.3238 15.5663 85.8998 16.4623C86.4758 17.3583 86.7638 18.4223 86.7638 19.6543C86.7638 20.8703 86.4758 21.9343 85.8998 22.8463C85.3238 23.7423 84.4918 24.4303 83.4038 24.9103C82.3318 25.3903 81.0678 25.6303 79.6118 25.6303H75.8198V30.4783H72.6998V13.6783H79.6118ZM79.4678 22.9903C80.8278 22.9903 81.8598 22.7023 82.5638 22.1263C83.2678 21.5503 83.6198 20.7263 83.6198 19.6543C83.6198 18.5823 83.2678 17.7583 82.5638 17.1823C81.8598 16.6063 80.8278 16.3183 79.4678 16.3183H75.8198V22.9903H79.4678ZM93.8903 17.5183C95.7783 17.5183 97.2183 17.9743 98.2103 18.8863C99.2183 19.7823 99.7223 21.1423 99.7223 22.9663V30.4783H96.8903V28.9183C96.5223 29.4783 95.9943 29.9103 95.3063 30.2143C94.6343 30.5023 93.8183 30.6463 92.8583 30.6463C91.8983 30.6463 91.0583 30.4863 90.3383 30.1663C89.6183 29.8303 89.0583 29.3743 88.6583 28.7983C88.2743 28.2063 88.0823 27.5423 88.0823 26.8063C88.0823 25.6543 88.5063 24.7343 89.3543 24.0463C90.2183 23.3423 91.5703 22.9903 93.4103 22.9903H96.7223V22.7983C96.7223 21.9023 96.4503 21.2143 95.9063 20.7343C95.3783 20.2543 94.5863 20.0143 93.5303 20.0143C92.8103 20.0143 92.0983 20.1263 91.3943 20.3503C90.7063 20.5743 90.1223 20.8863 89.6423 21.2863L88.4663 19.1023C89.1383 18.5903 89.9463 18.1983 90.8903 17.9263C91.8343 17.6543 92.8343 17.5183 93.8903 17.5183ZM93.4823 28.4623C94.2343 28.4623 94.8983 28.2943 95.4743 27.9583C96.0663 27.6063 96.4823 27.1103 96.7223 26.4703V24.9823H93.6263C91.8983 24.9823 91.0343 25.5503 91.0343 26.6863C91.0343 27.2303 91.2503 27.6623 91.6823 27.9823C92.1143 28.3023 92.7143 28.4623 93.4823 28.4623ZM107.988 17.5183C109.876 17.5183 111.316 17.9743 112.308 18.8863C113.316 19.7823 113.82 21.1423 113.82 22.9663V30.4783H110.988V28.9183C110.62 29.4783 110.092 29.9103 109.404 30.2143C108.732 30.5023 107.916 30.6463 106.956 30.6463C105.996 30.6463 105.156 30.4863 104.436 30.1663C103.716 29.8303 103.156 29.3743 102.756 28.7983C102.372 28.2063 102.18 27.5423 102.18 26.8063C102.18 25.6543 102.604 24.7343 103.452 24.0463C104.316 23.3423 105.668 22.9903 107.508 22.9903H110.82V22.7983C110.82 21.9023 110.548 21.2143 110.004 20.7343C109.476 20.2543 108.684 20.0143 107.628 20.0143C106.908 20.0143 106.196 20.1263 105.492 20.3503C104.804 20.5743 104.22 20.8863 103.74 21.2863L102.564 19.1023C103.236 18.5903 104.044 18.1983 104.988 17.9263C105.932 17.6543 106.932 17.5183 107.988 17.5183ZM107.58 28.4623C108.332 28.4623 108.996 28.2943 109.572 27.9583C110.164 27.6063 110.58 27.1103 110.82 26.4703V24.9823H107.724C105.996 24.9823 105.132 25.5503 105.132 26.6863C105.132 27.2303 105.348 27.6623 105.78 27.9823C106.212 28.3023 106.812 28.4623 107.58 28.4623ZM122.687 30.7183C121.391 30.7183 120.135 30.5343 118.919 30.1663C117.719 29.7983 116.767 29.3103 116.063 28.7023L117.143 26.2783C117.831 26.8223 118.671 27.2703 119.663 27.6223C120.671 27.9583 121.679 28.1263 122.687 28.1263C123.935 28.1263 124.863 27.9263 125.471 27.5263C126.095 27.1263 126.407 26.5983 126.407 25.9423C126.407 25.4623 126.231 25.0703 125.879 24.7663C125.543 24.4463 125.111 24.1983 124.583 24.0223C124.055 23.8463 123.335 23.6463 122.423 23.4223C121.143 23.1183 120.103 22.8143 119.303 22.5103C118.519 22.2063 117.839 21.7343 117.263 21.0943C116.703 20.4383 116.423 19.5583 116.423 18.4543C116.423 17.5263 116.671 16.6863 117.167 15.9343C117.679 15.1663 118.439 14.5583 119.447 14.1103C120.471 13.6623 121.719 13.4383 123.191 13.4383C124.215 13.4383 125.223 13.5663 126.215 13.8223C127.207 14.0783 128.063 14.4463 128.783 14.9263L127.799 17.3503C127.063 16.9183 126.295 16.5903 125.495 16.3663C124.695 16.1423 123.919 16.0303 123.167 16.0303C121.935 16.0303 121.015 16.2383 120.407 16.6543C119.815 17.0703 119.519 17.6223 119.519 18.3103C119.519 18.7903 119.687 19.1823 120.023 19.4863C120.375 19.7903 120.815 20.0303 121.343 20.2063C121.871 20.3823 122.591 20.5823 123.503 20.8063C124.751 21.0943 125.775 21.3983 126.575 21.7183C127.375 22.0223 128.055 22.4943 128.615 23.1343C129.191 23.7743 129.479 24.6383 129.479 25.7263C129.479 26.6543 129.223 27.4943 128.711 28.2463C128.215 28.9983 127.455 29.5983 126.431 30.0463C125.407 30.4943 124.159 30.7183 122.687 30.7183Z"></path>
<path fill="white" d="M140.774 20.9681C141.105 21.0728 141.364 21.2492 141.551 21.4973C141.739 21.7399 141.833 22.0404 141.833 22.3987C141.833 22.9059 141.634 23.2974 141.237 23.573C140.846 23.8432 140.272 23.9783 139.517 23.9783H136.523V18.1894H139.352C140.057 18.1894 140.598 18.3245 140.972 18.5946C141.353 18.8648 141.543 19.2314 141.543 19.6945C141.543 19.9757 141.474 20.2265 141.336 20.4471C141.204 20.6676 141.017 20.8412 140.774 20.9681ZM137.855 19.1983V20.5628H139.186C139.517 20.5628 139.768 20.5049 139.939 20.3892C140.11 20.2734 140.195 20.1025 140.195 19.8764C140.195 19.6504 140.11 19.4822 139.939 19.372C139.768 19.2562 139.517 19.1983 139.186 19.1983H137.855ZM139.418 22.9694C139.771 22.9694 140.035 22.9115 140.212 22.7957C140.394 22.6799 140.485 22.5007 140.485 22.2581C140.485 21.7785 140.129 21.5387 139.418 21.5387H137.855V22.9694H139.418ZM145.504 21.9274V23.9783H144.165V21.9108L141.924 18.1894H143.346L144.892 20.7613L146.439 18.1894H147.754L145.504 21.9274Z"></path>
<g clip-path="url(#clip0_5950_27182)">
<path fill="white" d="M174.637 18.0635H177.665V25.7764H179.099V18.0635H182.255V16.9737H174.637V18.0635Z"></path>
<path fill="white" d="M205.664 16.9737V20.8018H201.386V16.9737H199.951V25.7764H201.386V21.892H205.664V25.7764H207.085V16.9737H205.664Z"></path>
<path fill="white" d="M182.969 20.7084V22.0413C182.969 24.104 184.666 25.7764 186.759 25.7764H189.995V24.6235H186.791C185.555 24.6235 184.553 23.6359 184.553 22.4179V21.9601H189.995V20.7904H184.553V20.3326C184.553 19.1146 185.555 18.127 186.791 18.127H189.995V16.9737H186.759C184.666 16.9737 182.969 18.646 182.969 20.7088V20.7084Z"></path>
<path fill="white" d="M191.364 20.7084V22.0413C191.364 24.104 193.061 25.7764 195.155 25.7764H198.39V24.6235H195.186C193.95 24.6235 192.948 23.6359 192.948 22.4179V20.3322C192.948 19.1142 193.95 18.1266 195.186 18.1266H198.39V16.9737H195.155C193.061 16.9737 191.364 18.646 191.364 20.7088V20.7084Z"></path>
<path fill="white" d="M160.681 17.1376L167.166 22.9508C167.207 22.9868 167.23 23.0381 167.23 23.0917V25.657C167.23 25.8224 167.031 25.9089 166.907 25.7979L160.422 19.9843C160.381 19.9483 160.358 19.897 160.358 19.8434V17.2785C160.358 17.1131 160.557 17.0266 160.682 17.1376H160.681Z"></path>
<path fill="white" d="M160.358 21.7455V25.8967C160.358 26.0016 160.445 26.0869 160.551 26.0869H165.063L160.358 21.7455Z"></path>
<path fill="white" d="M159.197 19.7405V17.0358C159.197 16.932 159.111 16.8482 159.006 16.8482H155.607C155.535 16.8482 155.47 16.8876 155.437 16.9504L150.867 25.7868C150.802 25.9116 150.894 26.0593 151.036 26.0593H153.733C153.805 26.0593 153.871 26.0191 153.903 25.9556L154.912 23.9594C154.944 23.8959 155.01 23.8557 155.082 23.8557H159.006C159.111 23.8557 159.196 23.7719 159.196 23.6681V21.933C159.196 21.8297 159.111 21.7458 159.006 21.7454L156.341 21.7393C156.2 21.7393 156.108 21.5927 156.171 21.4683L156.897 20.0321C156.929 19.9686 156.995 19.9284 157.067 19.9284H159.006C159.111 19.9284 159.196 19.8446 159.196 19.7408L159.197 19.7405Z"></path>
<path fill="white" d="M167.23 21.1897V17.0381C167.23 16.9332 167.144 16.8482 167.038 16.8482H162.525L167.23 21.1897Z"></path>
<path fill="white" d="M170.711 16.9355L168.375 21.172C168.364 21.1927 168.357 21.2157 168.357 21.239V25.9326C168.357 26.0103 168.421 26.0731 168.5 26.0731H171.34C171.419 26.0731 171.483 26.0103 171.483 25.9326V21.239C171.483 21.2157 171.489 21.1927 171.5 21.172L173.764 17.0694C173.815 16.976 173.746 16.862 173.639 16.862H170.837C170.785 16.862 170.737 16.8903 170.712 16.9355H170.711Z"></path>
</g>
<defs>
<linearGradient gradientUnits="userSpaceOnUse" y2="0.141083" x2="71.0832" y1="33.2173" x1="-2.25934" id="paint0_linear_5950_27182">
<stop stop-color="#40FEFF"></stop>
<stop stop-color="#014AB8" offset="1"></stop>
</linearGradient>
<clipPath id="clip0_5950_27182">
<rect transform="translate(150.845 16.8481)" fill="white" height="9.23869" width="56.2395"></rect>
</clipPath>
</defs>
</svg>
